<?xml version="1.0" standalone="no"?>
<!DOCTYPE svg PUBLIC "-//W3C//DTD SVG 20010904//EN"
 "http://www.w3.org/TR/2001/REC-SVG-20010904/DTD/svg10.dtd">
<svg version="1.0" xmlns="http://www.w3.org/2000/svg"
 width="1080.000000pt" height="1080.000000pt" viewBox="0 0 1080.000000 1080.000000"
 preserveAspectRatio="xMidYMid meet">
<metadata>
Created by potrace 1.16, written by Peter Selinger 2001-2019
</metadata>
<g transform="translate(0.000000,1080.000000) scale(0.100000,-0.100000)"
fill="#000000" stroke="none">
<path d="M3844 10778 c-9 -31 -56 -99 -128 -188 -34 -41 -68 -84 -76 -95 -25
-34 -172 -175 -183 -175 -5 0 -17 -8 -26 -18 -22 -25 -292 -187 -421 -253 -58
-30 -108 -58 -112 -64 -4 -5 1 -14 10 -19 9 -5 20 -14 24 -19 16 -26 64 -11
168 51 19 12 51 29 70 39 19 9 60 33 90 54 30 20 71 45 90 55 19 10 37 22 40
25 3 3 40 29 82 58 42 29 112 87 155 129 80 79 185 197 192 216 2 6 7 13 11
16 10 6 86 158 95 188 6 20 3 22 -34 22 -32 0 -41 -4 -47 -22z"/>
<path d="M9155 10436 c-49 -23 -96 -50 -104 -59 -7 -9 -19 -17 -25 -17 -14 0
-111 -92 -158 -150 -47 -60 -93 -143 -118 -215 -18 -51 -20 -84 -20 -269 0
-197 2 -215 24 -276 78 -216 244 -380 471 -465 69 -26 74 -26 275 -23 l205 4
82 36 c202 91 353 247 435 452 31 77 32 89 36 235 3 121 0 171 -14 230 -52
229 -229 431 -465 530 l-74 31 -230 0 -230 0 -90 -44z m480 -103 c71 -22 150
-59 165 -78 7 -8 18 -15 25 -15 18 0 119 -102 152 -152 61 -95 102 -209 109
-306 4 -58 1 -75 -23 -124 -26 -56 -43 -73 -43 -43 0 8 9 29 20 47 26 43 26
68 0 68 -12 0 -20 6 -19 13 7 59 -21 60 -34 1 -10 -52 -67 -144 -88 -144 -39
0 -26 54 16 64 13 3 31 19 40 35 13 26 13 30 0 41 -28 23 -72 -6 -102 -69 -26
-54 -39 -71 -55 -71 -16 0 -7 19 11 25 14 4 19 14 18 38 0 18 3 40 7 50 11 22
-20 23 -52 1 -12 -8 -22 -14 -22 -12 0 2 17 38 39 81 23 46 34 77 26 77 -19 0
-44 -33 -80 -109 -33 -68 -53 -93 -42 -51 3 11 -1 27 -9 34 -8 8 -14 19 -14
25 0 5 -17 20 -38 33 -22 13 -37 28 -35 34 4 12 -23 44 -37 44 -4 0 -10 -10
-13 -22 -7 -24 17 -88 32 -88 6 0 11 -4 11 -10 0 -5 -9 -10 -20 -10 -11 0 -20
4 -20 9 0 11 -38 21 -54 15 -7 -3 -20 -18 -30 -34 -20 -34 -29 -32 -51 11 -18
34 -9 62 10 36 11 -15 15 -13 39 14 23 25 27 37 22 65 -7 32 -5 34 44 59 l51
26 -30 24 c-24 21 -40 25 -91 25 -62 0 -62 0 -121 -57 -45 -43 -63 -69 -76
-110 -18 -57 -10 -82 22 -69 12 4 15 13 11 29 -4 18 2 31 26 53 30 28 31 28
25 6 -7 -29 1 -54 15 -46 11 7 28 -13 28 -32 0 -7 -11 -15 -25 -18 -26 -7 -73
-64 -95 -116 -13 -31 -40 -42 -40 -16 0 8 9 30 19 48 31 55 35 78 13 78 -14 0
-23 -14 -36 -58 -10 -32 -16 -67 -14 -78 4 -22 36 -26 57 -6 11 11 16 11 22 1
5 -9 42 -13 114 -15 59 -1 109 -5 113 -8 3 -4 -7 -19 -21 -34 -35 -36 -34 -71
1 -105 37 -36 65 -34 156 8 62 29 79 42 100 78 32 54 86 108 86 85 0 -23 27
-30 63 -14 30 12 50 40 74 103 6 16 12 20 22 14 12 -8 12 -14 -2 -44 -19 -39
-21 -56 -8 -75 7 -12 14 -11 40 2 l31 17 0 -30 c0 -50 -87 -208 -149 -271
-130 -130 -246 -185 -417 -197 -86 -5 -211 12 -263 37 -83 39 -117 57 -131 70
-83 74 -149 144 -165 176 -11 21 -23 41 -26 44 -3 3 -12 22 -20 43 -7 20 -16
37 -19 37 -4 0 -7 7 -7 15 0 8 4 12 8 9 4 -2 10 0 14 6 3 6 -4 10 -17 11 -14
0 -17 3 -8 6 8 2 25 9 37 15 17 8 33 8 62 0 98 -30 214 0 235 61 12 34 -14 94
-46 106 -21 8 -21 8 6 15 47 12 65 43 62 108 l-3 56 56 40 c60 41 140 64 199
55 28 -5 38 0 68 32 19 21 38 35 41 31 4 -3 17 1 30 10 33 21 69 15 65 -11 -9
-52 -6 -70 10 -73 13 -2 18 7 23 42 9 59 1 89 -33 126 -38 42 -88 43 -167 3
-33 -17 -99 -50 -146 -73 -55 -26 -90 -49 -97 -64 -6 -13 -24 -39 -41 -59 -22
-24 -27 -37 -19 -40 10 -3 10 -7 1 -17 -6 -7 -9 -19 -6 -26 7 -18 -1 -18 -38
1 -16 9 -28 19 -25 23 7 12 -207 6 -237 -6 -38 -16 -46 -15 -23 3 11 8 14 15
8 15 -23 0 -12 20 14 26 18 5 22 9 13 15 -10 6 -6 20 16 61 16 29 39 62 52 73
13 11 23 25 23 30 0 23 180 155 211 155 8 0 19 4 25 9 29 27 188 52 284 44 30
-2 78 -12 105 -20z m-547 -428 c2 -2 -9 -21 -26 -42 -16 -21 -49 -74 -72 -118
-23 -44 -49 -88 -59 -98 -16 -16 -18 -16 -53 1 -28 13 -35 21 -28 32 5 8 5 21
-1 32 -8 15 -6 18 16 18 25 0 75 39 75 59 0 23 -21 20 -32 -3 -6 -14 -15 -26
-19 -26 -4 0 -14 -2 -22 -5 -10 -4 -14 3 -15 30 -1 25 2 34 10 29 7 -5 9 -2 5
8 -3 9 0 21 6 28 9 10 9 11 0 6 -7 -4 -13 -3 -13 2 0 32 202 74 228 47z m75
-16 c43 -23 47 -46 14 -85 -20 -23 -31 -27 -71 -26 -57 3 -58 -14 -3 -33 53
-18 67 -33 67 -70 0 -24 -8 -39 -32 -59 -31 -26 -38 -28 -106 -23 -40 2 -75 7
-78 10 -4 3 9 30 28 59 19 29 59 95 88 146 30 50 58 92 63 92 5 0 18 -5 30
-11z"/>
<path d="M5495 10400 c-3 -5 4 -15 17 -20 24 -11 30 -24 104 -200 93 -221 100
-230 124 -167 7 17 26 61 42 97 16 36 43 98 61 138 17 41 47 90 65 109 17 20
32 40 32 45 0 14 -143 5 -148 -9 -2 -8 6 -13 21 -13 41 0 40 -27 -10 -137
l-47 -105 -23 45 c-24 47 -73 173 -73 187 0 5 10 10 23 12 12 2 22 8 22 13 0
14 -201 19 -210 5z"/>
<path d="M5960 10396 c0 -8 10 -16 23 -18 28 -4 34 -49 29 -227 -4 -127 -5
-130 -28 -135 -13 -4 -24 -11 -24 -16 0 -6 47 -10 116 -10 87 0 115 3 112 12
-3 7 -15 15 -29 18 l-24 6 0 174 c0 174 0 174 23 180 13 3 24 10 25 15 1 6
-42 11 -110 13 -94 2 -113 0 -113 -12z"/>
<path d="M6227 10404 c-11 -11 -8 -112 3 -119 6 -4 17 10 25 30 9 21 26 40 41
45 56 22 55 25 52 -162 -3 -164 -4 -173 -23 -177 -11 -2 -23 -8 -27 -15 -5 -8
23 -12 100 -16 59 -3 113 -4 119 -2 18 5 6 21 -23 32 -24 9 -24 11 -25 155 -1
80 -2 155 -2 168 -1 16 5 23 24 25 30 4 64 -24 79 -63 16 -43 32 -17 28 46
l-3 54 -181 3 c-99 1 -183 -1 -187 -4z"/>
<path d="M4046 10370 c-110 -39 -200 -123 -254 -237 -25 -53 -27 -68 -27 -178
0 -114 2 -123 31 -185 30 -62 132 -180 155 -180 6 0 7 -4 4 -10 -9 -14 -35
-12 -35 3 0 8 -23 17 -62 23 -35 6 -72 14 -82 19 -16 7 -18 5 -14 -16 3 -13 8
-31 12 -39 4 -9 -2 -25 -13 -37 l-20 -21 31 -11 c17 -6 39 -11 48 -11 10 0 20
-7 23 -15 11 -28 116 -12 257 40 66 24 165 16 273 -23 97 -35 174 -42 183 -17
4 8 16 15 28 15 12 0 31 6 41 14 19 14 19 15 2 33 -16 18 -16 22 -1 52 9 18
14 35 11 38 -3 3 -26 -3 -51 -12 -25 -10 -59 -15 -77 -13 -25 4 -33 1 -37 -14
-4 -18 -23 -24 -35 -12 -3 3 22 34 56 68 69 70 76 78 96 121 25 55 32 89 38
176 9 135 -26 221 -132 325 -94 93 -150 117 -290 121 -81 3 -111 -1 -159 -17z
m254 -11 c41 -11 92 -31 113 -45 86 -57 161 -157 182 -245 6 -25 4 -27 -29
-31 -20 -2 -36 0 -36 4 0 4 11 8 24 8 14 0 27 3 29 8 7 12 -12 54 -22 48 -5
-3 -7 4 -3 16 4 16 2 19 -8 13 -10 -6 -12 -4 -7 10 8 18 2 18 -48 0 -13 -5
-16 -4 -7 2 7 5 10 17 6 26 -3 9 -2 17 4 17 6 0 12 -6 15 -12 2 -7 8 -10 12
-6 13 12 -4 38 -25 38 -12 0 -24 -9 -30 -22 -7 -20 -9 -20 -9 -4 -1 10 7 25
17 32 16 12 16 14 -1 31 -17 17 -19 17 -36 -6 -11 -14 -21 -20 -25 -13 -3 6 3
17 15 26 19 13 20 18 9 31 -16 19 -34 20 -27 1 10 -24 -17 -38 -47 -25 -26 12
-38 36 -13 26 7 -3 19 3 25 13 9 16 8 20 -8 25 -11 3 -24 4 -29 1 -5 -3 -11 1
-15 9 -8 22 -43 18 -56 -5 -6 -11 -8 -20 -4 -20 4 0 5 -2 2 -5 -3 -3 -18 1
-34 10 -16 8 -22 15 -14 15 9 0 16 9 17 21 3 34 -41 21 -45 -13 -2 -16 -8 -28
-14 -28 -6 0 -8 10 -4 23 3 12 6 28 6 35 0 17 34 15 120 -9z m45 -113 c68 -38
108 -78 138 -140 64 -130 57 -136 -158 -132 -88 2 -165 -1 -172 -6 -13 -11
-20 -2 -27 37 -7 38 -18 47 -52 43 -24 -3 -30 -10 -41 -49 -16 -56 -35 -64
-112 -46 l-53 12 5 47 c15 119 110 224 239 262 60 18 174 4 233 -28z m235
-373 c27 7 26 -16 -1 -79 -46 -105 -171 -226 -201 -196 -9 9 -7 16 7 32 14 15
15 20 4 20 -8 0 0 13 18 30 36 34 43 36 43 16 0 -7 9 -16 20 -19 16 -4 20 0
20 19 0 13 -3 23 -7 23 -29 -5 -32 3 -11 31 26 36 31 37 58 8 11 -12 20 -17
20 -11 0 6 3 18 6 26 3 10 -3 17 -20 21 -16 4 -26 13 -26 24 0 11 3 13 8 6 4
-7 18 -14 32 -15 21 -3 26 1 28 24 3 23 0 27 -22 27 -17 0 -26 5 -26 16 0 13
3 14 15 4 8 -7 24 -10 35 -7z m-378 -161 c46 7 72 7 85 -1 16 -9 15 -10 -9
-11 -16 0 -28 -4 -28 -10 0 -5 -16 -10 -35 -10 -24 0 -35 -5 -35 -15 0 -16 25
-21 34 -6 6 9 69 24 99 24 48 -2 49 -6 7 -26 -35 -17 -64 -22 -125 -22 -44 0
-82 5 -85 10 -3 6 5 11 18 13 31 5 17 22 -19 22 -19 0 -29 -5 -29 -15 0 -8 -3
-15 -6 -15 -13 0 -74 42 -74 50 0 5 21 8 46 8 54 0 62 5 43 29 -7 10 0 6 16
-8 29 -26 32 -26 97 -17z"/>
<path d="M340 10218 c11 -18 20 -43 20 -55 0 -21 -5 -23 -50 -23 -27 0 -50 4
-50 9 0 20 -33 41 -65 41 -74 0 -51 -43 33 -61 112 -25 162 -78 141 -154 -6
-19 -20 -44 -31 -55 l-22 -20 72 0 c40 0 72 2 72 4 0 4 -56 198 -69 241 -6 17
-13 47 -17 68 -5 30 -10 37 -30 37 l-24 0 20 -32z"/>
<path d="M4735 9940 c-4 -7 291 -10 877 -10 486 0 955 -1 1043 -1 561 -1 725
2 725 11 0 14 -2636 14 -2645 0z"/>
<path d="M160 9858 c0 -5 560 -9 1245 -9 685 -1 1250 -2 1257 -3 6 -1 13 4 15
9 2 7 -421 10 -1257 10 -693 0 -1260 -3 -1260 -7z"/>
<path d="M6400 9795 c0 -29 7 -32 27 -7 12 15 14 10 10 -45 l-3 -63 30 0 31 0
-3 62 c-4 59 -3 61 15 48 10 -8 19 -15 21 -16 1 -1 -3 -13 -9 -27 -23 -50 37
-101 73 -63 11 11 16 11 35 -1 15 -10 27 -12 40 -5 12 7 37 7 72 0 29 -5 54
-8 56 -6 2 2 1 25 -2 51 -5 39 -10 50 -29 58 -13 5 -23 14 -22 21 2 7 -7 14
-19 16 -22 3 -23 0 -23 -57 0 -56 -2 -60 -22 -58 -22 1 -38 13 -38 30 0 5 10
7 23 5 16 -2 22 2 22 17 0 27 -51 34 -69 9 -12 -15 -13 -15 -19 0 -4 10 -18
16 -37 16 -24 0 -30 4 -28 18 3 14 -7 17 -64 20 -67 3 -68 3 -68 -23z"/>
<path d="M5817 9792 c-13 -14 -17 -32 -15 -63 3 -40 6 -44 31 -47 15 -2 27 1
27 7 0 6 -4 11 -10 11 -5 0 -10 14 -10 30 0 20 5 30 15 30 10 0 15 -10 15 -34
0 -42 16 -55 58 -49 24 4 32 11 33 27 3 55 11 64 18 21 5 -34 10 -40 34 -43
15 -2 27 1 27 7 0 6 -4 11 -10 11 -5 0 -10 11 -10 24 0 14 5 28 10 31 13 8 12
16 -5 40 -15 19 -15 19 -30 -1 -11 -16 -23 -20 -52 -18 -21 2 -52 3 -70 3 -21
1 -33 7 -35 17 -3 14 -6 13 -21 -4z"/>
<path d="M7193 9768 c-4 -7 -8 -39 -8 -71 -1 -52 1 -58 23 -64 13 -3 34 -1 47
5 16 7 26 7 33 0 19 -19 38 -1 59 54 12 29 24 61 28 71 5 12 2 17 -9 17 -9 0
-16 -8 -16 -20 0 -11 -4 -20 -10 -20 -5 0 -10 9 -10 20 0 18 -7 20 -64 20 -41
0 -68 -5 -73 -12z"/>
<path d="M4747 9573 c-11 -10 -8 -71 4 -78 6 -4 9 2 8 17 -4 39 0 58 12 58 7
0 10 -13 7 -34 l-4 -33 99 -1 c82 -1 98 1 93 13 -3 8 -1 17 4 20 6 4 10 -3 10
-13 0 -17 7 -19 51 -18 28 1 53 -2 55 -5 2 -4 13 -5 24 -2 16 4 20 14 20 44 0
39 -13 52 -23 25 -4 -9 -19 -14 -37 -14 -18 1 -36 -5 -41 -13 -7 -11 -9 -11
-9 3 0 15 -10 17 -86 14 -66 -3 -87 -1 -91 10 -5 14 -83 20 -96 7z"/>
<path d="M5400 9540 l0 -40 40 0 c52 0 55 1 53 25 -2 18 -1 18 9 -2 7 -15 20
-23 35 -23 20 0 23 4 18 21 -5 15 -4 19 4 15 6 -4 11 -14 11 -22 0 -22 20 -17
30 9 l9 22 0 -22 c1 -28 9 -32 44 -26 18 4 27 12 27 24 0 11 5 19 11 19 6 0 9
-9 6 -20 -4 -17 0 -20 29 -20 29 0 34 3 34 24 0 14 -4 28 -10 31 -5 3 -10 -2
-10 -11 0 -14 -3 -14 -19 5 -16 19 -23 21 -41 11 -11 -6 -24 -9 -29 -6 -4 3
-22 1 -40 -4 -20 -6 -31 -5 -31 2 0 5 -7 8 -15 4 -9 -3 -15 0 -15 9 0 8 -4 15
-10 15 -5 0 -6 -8 -3 -17 5 -13 2 -15 -11 -10 -10 4 -22 7 -27 7 -6 0 -7 5 -4
10 3 6 -5 10 -19 10 -21 0 -25 -5 -28 -32 -4 -39 -24 -35 -22 5 1 17 -3 27
-12 27 -10 0 -14 -12 -14 -40z"/>
<path d="M6326 9565 c7 -18 -7 -20 -24 -3 -7 7 -12 8 -12 2 0 -6 -19 -9 -42
-8 -24 1 -49 -2 -55 -8 -9 -7 -13 -7 -13 1 0 6 -7 11 -15 11 -18 0 -20 -21 -2
-39 10 -11 10 -13 0 -7 -7 4 -13 2 -13 -3 0 -7 26 -10 65 -10 36 1 65 5 65 10
0 5 -4 9 -10 9 -5 0 -10 4 -10 8 0 5 7 9 15 9 8 0 15 -9 15 -19 0 -26 18 -22
23 5 4 20 4 20 6 1 1 -19 8 -21 67 -22 l65 -1 -3 27 c-3 24 -8 27 -43 29 -27
1 -44 -4 -52 -15 -11 -14 -13 -12 -13 11 0 15 -4 27 -10 27 -5 0 -7 -7 -4 -15z"/>
<path d="M6382 8270 c-35 -4 -68 -13 -75 -20 -10 -10 -8 -11 8 -5 83 31 231
-10 315 -88 14 -12 36 -42 49 -66 20 -36 23 -53 19 -115 -3 -62 -8 -79 -32
-110 -25 -33 -26 -37 -7 -27 12 7 27 9 33 5 7 -4 8 -3 4 4 -4 6 -2 30 4 53 9
32 14 38 25 29 9 -7 15 -8 20 0 11 17 23 11 23 -12 -1 -28 44 -184 61 -217 17
-30 81 -101 92 -101 5 0 -7 17 -27 38 -64 67 -94 154 -94 270 0 136 36 246
100 311 17 17 28 31 23 31 -13 0 -73 -64 -73 -77 0 -6 -6 -16 -14 -22 -8 -7
-17 -27 -20 -47 -4 -19 -11 -32 -17 -29 -5 4 -9 0 -9 -7 0 -7 -5 -30 -11 -50
-11 -41 -29 -51 -29 -16 0 21 0 21 -15 2 -13 -18 -14 -15 -15 29 0 30 -4 46
-10 42 -5 -3 -10 2 -10 12 0 25 -109 135 -138 139 -8 2 -24 12 -36 23 -27 26
-63 31 -144 21z"/>
<path d="M6260 8233 c-20 -8 -35 -24 -44 -48 l-8 -20 -9 20 c-7 16 -8 14 -4
-8 3 -16 1 -35 -6 -43 -6 -7 -9 -20 -6 -27 6 -15 -13 -121 -38 -224 -9 -35
-15 -80 -14 -101 3 -41 -7 -66 -22 -57 -5 4 -9 -1 -9 -9 0 -9 7 -16 16 -16 13
0 15 -16 13 -110 -3 -126 5 -153 14 -53 60 630 64 652 132 691 21 12 11 15
-15 5z"/>
<path d="M6014 8209 c51 -40 34 -99 -99 -333 -28 -48 -28 -48 -10 -80 10 -17
24 -35 30 -41 24 -21 85 -102 93 -125 11 -29 -5 -100 -23 -100 -7 0 -18 -7
-25 -15 -10 -12 -9 -15 4 -15 10 0 15 4 12 9 -3 5 3 11 14 14 26 7 43 54 35
97 -4 19 -8 45 -8 58 -1 13 -9 29 -18 35 -8 7 -18 20 -22 29 -4 12 -12 15 -23
11 -12 -4 -15 -3 -10 6 9 13 -12 72 -28 83 -11 7 35 109 76 170 10 14 18 33
18 42 0 9 4 16 9 16 6 0 13 20 16 44 8 48 -11 99 -40 110 -28 10 -29 7 -1 -15z"/>
<path d="M8733 8190 c-13 -5 -43 -29 -67 -54 -96 -95 -141 -289 -87 -377 47
-79 127 -75 205 11 41 47 53 71 85 171 25 81 6 175 -47 232 -27 28 -50 32 -89
17z m41 -22 c-5 -7 -1 -9 12 -6 17 4 19 0 16 -31 -3 -33 -2 -35 12 -18 14 18
15 18 27 -5 20 -36 16 -175 -6 -225 -10 -23 -22 -40 -27 -37 -5 3 -8 2 -7 -3
4 -24 -3 -43 -15 -43 -8 0 -17 -9 -21 -19 -4 -13 -12 -18 -21 -14 -9 3 -14 0
-12 -7 3 -16 -38 -40 -67 -39 -18 0 -17 1 5 15 l25 15 -25 -7 c-35 -9 -46 -11
-38 -7 12 7 -15 41 -27 36 -7 -2 -15 5 -18 16 -3 13 -1 19 5 15 7 -4 8 7 3 34
-4 26 -2 47 7 61 10 16 10 23 0 33 -6 6 -12 21 -12 33 0 29 43 114 58 115 7 0
10 4 7 10 -4 6 1 7 11 3 13 -5 15 -2 9 16 -5 18 0 24 34 40 23 10 38 21 34 24
-3 4 4 7 16 7 14 0 20 -4 15 -12z"/>
<path d="M8011 8164 c-12 -15 -21 -33 -21 -41 0 -38 -31 -73 -78 -87 l-47 -15
49 0 c47 -1 49 -2 30 -17 -16 -13 -16 -15 -1 -10 19 6 21 -2 7 -24 -9 -13 -11
-13 -20 0 -8 11 -9 9 -5 -11 4 -18 1 -32 -10 -43 -21 -20 -105 -134 -105 -141
0 -3 -12 -24 -26 -46 -14 -22 -23 -48 -21 -57 4 -15 5 -15 6 1 1 25 50 99 163
248 52 69 107 152 123 184 26 56 26 59 9 72 -25 18 -30 17 -53 -13z"/>
<path d="M9396 8171 c-9 -10 -22 -36 -27 -57 -6 -22 -18 -47 -26 -56 -23 -26
-76 -33 -112 -15 -17 9 -31 12 -31 7 0 -5 13 -14 29 -21 16 -7 27 -17 25 -21
-3 -4 0 -8 5 -8 6 0 11 4 11 9 0 14 65 18 77 5 8 -8 6 -15 -8 -25 -10 -7 -19
-19 -19 -27 0 -17 -26 -43 -34 -34 -4 3 -4 -1 -1 -10 4 -11 -2 -25 -19 -39
-14 -13 -26 -28 -26 -35 0 -6 -7 -14 -15 -18 -8 -3 -15 -12 -15 -21 0 -8 -8
-23 -17 -33 -29 -29 -63 -98 -62 -123 1 -23 1 -23 9 3 7 25 36 80 53 103 4 5
35 48 69 95 34 47 66 87 70 88 4 2 8 10 8 17 0 7 4 15 8 17 13 5 71 94 92 140
28 63 -3 105 -44 59z"/>
<path d="M9986 8174 c-15 -9 -40 -27 -55 -40 -16 -14 -36 -31 -47 -39 -23 -18
-12 -19 18 -2 22 12 33 20 65 47 39 34 82 16 121 -50 11 -18 11 -25 1 -34 -9
-8 -10 -7 -5 8 5 16 4 17 -9 6 -8 -7 -13 -21 -10 -30 5 -17 -17 -50 -34 -50
-10 0 -54 -60 -48 -66 7 -8 120 113 140 148 22 42 22 81 -1 101 -24 21 -97 22
-136 1z"/>
<path d="M7055 8121 c-51 -21 -86 -105 -87 -205 0 -125 43 -188 118 -170 33 7
94 69 94 95 0 10 6 19 13 21 8 3 12 34 12 106 0 98 -1 102 -29 131 -31 32 -76
40 -121 22z m116 -48 c6 -12 12 -33 12 -47 0 -14 3 -26 8 -26 13 0 11 -67 -1
-75 -6 -4 -8 -10 -5 -15 3 -4 -2 -21 -10 -36 -8 -16 -15 -35 -15 -41 0 -7 -5
-13 -11 -13 -5 0 -7 5 -4 10 3 6 1 10 -5 10 -7 0 -9 -8 -5 -19 5 -16 -1 -22
-32 -30 -52 -15 -73 -14 -73 4 0 8 -6 12 -14 9 -24 -9 -39 76 -27 156 5 30 9
46 10 35 1 -16 3 -17 11 -5 5 9 5 19 -1 27 -13 14 -2 36 13 27 6 -4 8 1 4 13
-8 24 7 38 54 50 40 11 74 -2 91 -34z"/>
<path d="M5165 8110 c-3 -5 -9 -32 -12 -60 l-6 -50 44 0 c65 0 88 -9 104 -41
20 -38 19 -56 -6 -90 -19 -28 -24 -29 -94 -29 l-74 0 -6 -37 c-4 -21 -7 -45
-8 -53 -2 -13 15 -14 108 -12 139 5 159 -3 180 -65 11 -36 14 -39 10 -14 -3
18 -5 40 -5 47 0 20 -47 47 -81 46 -17 0 -32 5 -35 13 -3 7 -14 15 -25 18 -19
5 -27 27 -9 27 19 0 59 51 66 85 7 39 -17 112 -36 107 -17 -4 -48 39 -43 59 3
10 12 20 22 22 9 3 0 3 -19 1 -19 -2 -42 1 -50 6 -10 7 15 10 80 11 92 2 93 2
35 9 -88 11 -133 11 -140 0z"/>
<path d="M6363 8074 c-3 -9 -6 -51 -7 -92 -1 -67 1 -77 18 -80 38 -8 107 10
136 34 52 44 33 98 -45 134 -53 24 -93 26 -102 4z"/>
<path d="M6344 6872 c-11 -7 -34 -158 -34 -225 0 -32 3 -37 24 -37 25 0 36 16
36 55 0 34 10 55 26 55 10 0 14 -13 14 -46 0 -44 1 -45 28 -42 26 3 27 6 36
78 4 41 9 95 10 120 1 42 -1 45 -24 45 -22 0 -26 -5 -30 -40 -7 -47 -16 -65
-35 -65 -11 0 -14 13 -12 52 2 53 -11 70 -39 50z"/>
<path d="M6858 6873 c-33 -5 -36 -13 -44 -121 -6 -86 -6 -90 17 -106 29 -20
61 -20 100 -1 31 16 52 55 43 78 -2 7 4 22 16 32 40 36 15 97 -48 115 -20 5
-41 9 -47 8 -5 0 -22 -3 -37 -5z"/>
<path d="M7801 6871 c-15 -10 -46 -223 -36 -249 7 -18 49 -11 52 8 10 77 15
90 34 90 17 0 19 -6 17 -42 -3 -38 0 -43 20 -46 27 -4 28 -2 46 122 16 110 13
128 -18 124 -16 -2 -23 -14 -31 -53 -7 -33 -17 -51 -27 -53 -14 -3 -17 7 -20
49 -3 54 -12 66 -37 50z"/>
<path d="M6547 6848 c-17 -68 -30 -199 -21 -208 14 -14 142 0 148 16 9 23 -21
43 -59 38 -26 -3 -35 0 -35 10 0 9 12 16 28 18 21 2 28 9 30 31 3 22 -1 27
-18 27 -15 0 -20 5 -18 18 2 11 13 17 30 17 33 0 53 18 45 39 -5 12 -21 16
-66 16 -53 0 -59 -2 -64 -22z"/>
<path d="M7178 6853 c-41 -47 -51 -129 -23 -183 20 -40 72 -50 117 -23 43 25
58 56 58 121 0 43 -5 58 -25 77 -30 31 -103 35 -127 8z"/>
<path d="M7400 6838 c-11 -18 -20 -41 -20 -51 0 -19 42 -67 60 -67 5 0 10 -9
10 -21 0 -19 -4 -20 -40 -14 -32 5 -41 3 -46 -9 -10 -27 24 -56 66 -56 50 0
80 29 80 80 0 32 -6 43 -36 68 -35 29 -36 30 -15 41 13 7 21 22 21 36 0 21 -5
25 -30 25 -23 0 -35 -7 -50 -32z"/>
<path d="M8005 6858 c-2 -7 -11 -53 -19 -103 -18 -111 -11 -130 42 -121 21 3
52 6 70 6 27 0 32 3 32 25 0 26 -4 28 -54 29 -40 1 -44 22 -6 30 26 5 31 10
28 28 -2 15 -11 24 -26 26 -32 5 -25 37 8 38 46 1 50 4 50 29 0 24 -3 25 -60
25 -40 0 -62 -4 -65 -12z"/>
<path d="M8407 6857 c-13 -35 -30 -208 -21 -217 6 -6 38 -7 77 -3 62 5 67 8
67 29 0 25 -4 27 -55 28 -38 1 -43 31 -5 31 20 0 26 6 28 28 3 23 0 27 -22 27
-27 0 -31 6 -17 28 5 8 17 11 34 7 19 -5 28 -2 35 12 17 33 4 43 -58 43 -39 0
-60 -4 -63 -13z"/>
<path d="M8817 6852 c-9 -10 -20 -32 -23 -49 -5 -25 -1 -37 18 -56 13 -13 30
-26 38 -29 8 -2 11 -11 7 -21 -5 -14 -14 -16 -45 -11 -31 5 -40 3 -45 -10 -10
-25 27 -56 67 -56 85 0 116 85 52 145 l-34 32 20 21 c12 12 18 27 15 36 -9 22
-50 20 -70 -2z"/>
<path d="M9305 6846 c-48 -48 -41 -181 10 -204 44 -20 75 -14 111 22 31 31 34
39 34 95 0 52 -4 66 -25 86 -33 34 -96 35 -130 1z"/>
<path d="M6114 6845 c-9 -24 3 -45 27 -45 20 0 21 -4 18 -82 -4 -83 -4 -83 21
-83 21 0 26 6 32 40 4 22 7 59 7 82 1 38 3 42 29 45 21 2 27 8 27 28 0 24 -2
25 -78 28 -62 2 -78 0 -83 -13z"/>
<path d="M7576 6838 c-17 -27 -39 -229 -27 -241 22 -22 46 -1 55 46 7 42 11
47 35 47 26 0 68 23 83 44 18 25 8 77 -18 101 -37 34 -107 35 -128 3z"/>
<path d="M9494 6845 c-9 -23 3 -45 26 -45 18 0 20 -6 20 -80 0 -66 3 -82 16
-87 28 -11 44 25 44 98 0 66 1 68 28 71 21 2 27 8 27 28 0 24 -2 25 -78 28
-62 2 -78 0 -83 -13z"/>
<path d="M8201 6827 c-23 -25 -41 -107 -41 -189 0 -44 2 -48 24 -48 26 0 36
16 36 61 0 16 3 29 7 29 4 0 24 -16 44 -36 28 -27 42 -34 58 -29 29 9 26 28
-10 69 -29 33 -30 37 -15 58 23 33 20 74 -6 92 -32 23 -71 20 -97 -7z"/>
<path d="M9185 6813 c-11 -66 -15 -71 -31 -40 -11 20 -22 27 -37 25 -19 -3
-25 -17 -45 -97 -21 -80 -22 -95 -10 -108 29 -28 57 4 58 67 1 24 1 24 12 5
32 -59 38 -66 57 -56 13 8 23 35 36 99 20 107 18 136 -12 140 -18 3 -23 -3
-28 -35z"/>
<path d="M7557 6403 c-4 -3 -10 -28 -13 -55 -5 -39 -10 -48 -26 -48 -18 0 -19
5 -13 50 l7 50 -31 0 c-17 0 -31 -1 -31 -3 0 -1 -7 -56 -15 -121 -8 -66 -12
-123 -9 -127 3 -5 16 -9 29 -9 21 0 24 6 32 53 6 36 13 52 23 52 10 0 16 -11
17 -30 0 -16 2 -36 2 -42 1 -7 12 -13 26 -13 28 0 28 -1 44 138 7 51 9 97 6
103 -7 10 -38 12 -48 2z"/>
<path d="M6233 6385 c-25 -18 -38 -66 -24 -92 5 -10 21 -25 35 -33 14 -7 26
-22 26 -33 0 -16 -5 -18 -40 -12 -33 6 -41 4 -47 -11 -9 -24 31 -54 73 -54 46
0 74 29 74 78 -1 41 -13 62 -49 82 l-25 13 23 18 c45 37 2 78 -46 44z"/>
<path d="M6718 6393 c-32 -8 -52 -54 -52 -121 -1 -58 2 -66 27 -88 64 -54 149
-12 163 81 8 55 1 84 -26 113 -20 21 -65 28 -112 15z"/>
<path d="M7678 6380 c-44 -34 -54 -118 -23 -192 8 -20 63 -33 101 -24 14 4 36
18 48 31 21 23 22 23 34 4 7 -10 12 -27 12 -37 0 -42 55 -59 65 -19 3 12 8 36
10 52 2 17 4 30 5 30 1 0 3 12 4 27 1 15 8 33 15 40 11 11 12 8 7 -15 -15 -62
45 -80 65 -19 12 35 13 36 19 12 3 -13 3 -47 -1 -75 -8 -60 6 -84 40 -66 19
11 21 20 21 104 0 126 -7 135 -105 135 -71 1 -76 -1 -95 -28 -11 -15 -26 -51
-33 -80 -11 -42 -16 -49 -25 -37 -7 8 -11 23 -11 33 9 95 -21 144 -89 144 -24
0 -49 -8 -64 -20z"/>
<path d="M8167 6393 c-9 -15 -27 -118 -31 -179 l-5 -61 47 9 c26 4 54 8 62 7
40 -3 50 2 50 25 0 28 -19 38 -60 29 -23 -4 -30 -2 -30 10 0 10 11 17 28 19
21 2 27 8 27 28 0 19 -6 26 -23 28 -32 5 -25 37 8 38 47 1 51 4 48 27 -3 19
-10 22 -60 25 -31 2 -58 -1 -61 -5z"/>
<path d="M8978 6390 c-9 -6 -22 -26 -28 -45 -13 -40 -4 -64 35 -89 14 -9 25
-23 25 -32 0 -12 -8 -14 -45 -8 -43 6 -45 5 -45 -18 0 -43 66 -61 119 -33 55
28 45 116 -15 144 l-28 13 23 17 c43 33 6 79 -41 51z"/>
<path d="M9239 6371 c-26 -27 -29 -36 -29 -96 0 -57 3 -69 25 -90 43 -44 116
-27 147 35 33 65 19 147 -29 169 -43 20 -82 13 -114 -18z"/>
<path d="M6367 6375 c-10 -24 3 -45 28 -45 21 0 22 -3 21 -82 -1 -82 -1 -83
24 -83 24 0 25 3 30 80 5 79 5 80 33 83 24 3 28 7 25 30 -3 26 -5 27 -79 30
-62 2 -78 0 -82 -13z"/>
<path d="M8624 6375 c-9 -23 3 -45 26 -45 19 0 20 -6 20 -85 0 -78 2 -85 20
-85 28 0 40 30 40 104 0 63 1 65 28 68 21 2 27 8 27 28 0 24 -2 25 -78 28 -62
2 -78 0 -83 -13z"/>
<path d="M5876 6358 c-3 -13 -6 -45 -6 -71 0 -53 -18 -70 -46 -43 -22 23 -39
15 -39 -19 0 -40 45 -72 82 -59 42 14 64 66 61 144 -3 58 -5 65 -24 68 -15 2
-23 -4 -28 -20z"/>
<path d="M5970 6365 c-19 -22 -7 -131 18 -164 23 -32 73 -39 109 -16 34 22 55
77 51 133 -3 43 -5 47 -28 47 -23 0 -25 -5 -30 -52 -3 -32 -13 -60 -23 -70
-17 -17 -19 -17 -33 1 -8 11 -14 42 -14 72 0 38 -4 53 -16 58 -21 8 -20 8 -34
-9z"/>
<path d="M6903 6373 c-22 -8 -17 -132 7 -170 17 -29 25 -33 60 -33 31 0 47 6
65 26 42 45 59 139 30 168 -23 23 -45 9 -45 -29 0 -43 -26 -105 -45 -105 -20
0 -24 11 -26 71 -2 68 -14 86 -46 72z"/>
<path d="M7145 6356 c-17 -17 -25 -39 -29 -82 -4 -33 -9 -78 -12 -101 -4 -34
-2 -44 14 -52 25 -13 48 11 50 53 1 16 4 31 6 34 3 2 20 -12 39 -33 22 -24 41
-36 53 -33 31 6 28 40 -8 76 -19 20 -28 36 -21 40 19 13 34 53 27 75 -16 50
-79 63 -119 23z"/>
<path d="M9697 6368 c-27 -21 -45 -79 -48 -163 -4 -79 -4 -80 21 -80 21 0 26
6 31 38 3 20 8 40 11 43 3 2 22 -11 43 -31 63 -62 106 -20 44 42 l-31 32 21
27 c26 33 26 45 0 78 -22 29 -64 35 -92 14z"/>
<path d="M9430 6308 c0 -40 6 -76 18 -98 15 -30 22 -35 58 -38 56 -4 88 27
105 103 14 64 6 88 -30 93 -17 3 -21 -2 -21 -25 0 -70 -35 -133 -60 -107 -4 5
-11 36 -14 69 -3 33 -5 61 -5 63 -1 1 -12 2 -26 2 -24 0 -25 -2 -25 -62z"/>
<path d="M8100 6120 c0 -5 -7 -10 -15 -10 -8 0 -15 -5 -15 -11 0 -6 8 -9 19
-6 15 3 23 -6 40 -48 19 -46 24 -51 49 -48 22 3 30 -2 45 -27 11 -21 22 -30
32 -26 8 3 15 1 15 -3 0 -5 -5 -11 -12 -13 -6 -2 -12 -20 -13 -39 -1 -18 -6
-68 -10 -110 -5 -48 -4 -79 2 -82 20 -13 142 5 148 21 9 23 -11 37 -52 37 -20
0 -38 6 -40 13 -3 7 5 12 20 12 29 0 52 23 43 45 -3 8 -17 15 -30 15 -20 0
-24 4 -19 17 4 11 8 13 11 5 3 -9 8 -10 15 -3 24 19 75 20 95 0 15 -13 22 -15
25 -6 3 7 6 -27 6 -75 1 -86 1 -88 25 -88 28 0 32 8 41 104 5 46 10 64 16 55
7 -11 9 -11 9 -1 0 7 3 11 8 8 4 -2 25 4 47 14 40 19 40 19 11 20 -37 0 -23
19 17 22 15 1 27 8 27 15 0 16 38 36 56 29 8 -3 14 -12 14 -20 0 -10 11 -15
38 -15 20 0 48 0 62 -1 25 -2 25 -2 -4 -14 -16 -7 -25 -15 -19 -17 6 -3 7 -38
2 -93 -8 -99 -4 -118 20 -115 9 1 28 -3 43 -11 22 -10 30 -10 49 4 29 20 39
20 39 1 0 -17 12 -19 26 -5 12 12 37 18 109 27 78 10 84 44 11 64 -38 11 -39
13 -16 18 18 5 26 15 28 34 3 25 -5 32 -30 28 -5 0 -8 6 -8 15 0 9 8 14 18 13
34 -3 50 1 56 16 13 34 -4 45 -70 45 -53 0 -64 -3 -64 -17 0 -14 -2 -14 -20 2
-11 10 -20 13 -20 8 0 -6 -17 -2 -37 8 -21 10 -43 19 -50 19 -7 0 -13 4 -13 9
0 5 -18 28 -40 50 -22 22 -40 44 -40 50 0 18 -33 21 -51 5 -14 -12 -22 -13
-38 -4 -14 7 -27 7 -39 1 -14 -8 -23 -5 -36 11 -10 11 -25 18 -35 15 -9 -2
-22 2 -29 10 -14 14 -57 18 -48 4 3 -5 -1 -12 -10 -15 -22 -8 -26 -8 -20 3 4
5 4 16 0 24 -6 17 -37 12 -55 -9 -8 -9 -24 -12 -55 -7 -33 4 -44 2 -44 -8 0
-9 -3 -9 -12 3 -8 10 -36 18 -76 21 -72 6 -102 0 -102 -19 0 -8 -4 -14 -8 -14
-15 0 -30 22 -25 36 3 8 0 14 -6 14 -6 0 -11 -4 -11 -10z"/>
<path d="M3255 6051 c-3 -5 -1 -12 5 -16 15 -9 12 -25 -5 -25 -8 0 -15 6 -15
13 -1 30 -29 -45 -39 -107 -11 -60 -10 -71 3 -85 11 -10 16 -11 16 -3 0 7 14
12 35 12 26 0 33 -3 29 -15 -5 -11 -11 -12 -24 -5 -13 7 -21 7 -25 0 -3 -5 -2
-10 4 -10 5 0 17 -7 25 -16 9 -8 16 -11 16 -6 0 6 7 13 16 16 14 5 15 4 5 -8
-7 -8 -8 -17 -3 -20 5 -3 7 -17 4 -31 -3 -21 0 -27 17 -32 11 -3 21 -7 21 -10
0 -11 -30 -33 -47 -33 -19 0 -55 56 -67 103 -3 15 -11 27 -16 27 -13 0 -13 -1
4 -41 13 -31 8 -60 -15 -79 -3 -3 -6 -70 -5 -150 1 -80 -3 -152 -9 -160 -10
-16 -7 -82 3 -90 4 -3 8 -41 8 -85 1 -65 0 -72 -6 -35 -6 42 -7 39 -9 -30 -3
-110 -15 -201 -38 -284 -3 -12 -1 -16 6 -12 6 4 11 16 11 27 0 11 4 18 8 15 5
-3 6 9 4 26 -3 21 -1 29 7 24 6 -4 11 -18 11 -32 0 -13 4 -24 10 -24 5 0 12
-11 16 -24 4 -18 0 -31 -17 -48 -15 -16 -20 -18 -16 -6 3 9 0 22 -8 28 -15 13
-17 11 -35 -47 -7 -23 -17 -40 -21 -37 -5 3 -9 -2 -9 -11 0 -9 -25 -78 -55
-153 -51 -128 -68 -181 -44 -139 12 21 29 13 29 -14 0 -11 7 -19 16 -19 12 0
15 -6 10 -22 -3 -13 -6 -32 -6 -43 0 -17 -2 -17 -10 -5 -5 8 -10 25 -10 38 0
24 -15 30 -23 10 -2 -7 -8 -9 -13 -5 -5 5 -1 13 9 18 9 6 17 15 17 21 0 7 -5
6 -15 -2 -8 -6 -20 -8 -26 -4 -7 4 -9 3 -5 -4 3 -6 -3 -19 -14 -30 -13 -12
-18 -26 -14 -38 5 -15 4 -16 -5 -4 -8 12 -11 12 -17 -3 -3 -9 -1 -24 5 -31 8
-10 9 -16 1 -21 -5 -3 -10 1 -10 11 0 13 -3 14 -15 4 -8 -7 -15 -17 -15 -22 0
-5 -7 -16 -15 -25 -10 -9 -13 -24 -10 -37 5 -16 4 -18 -4 -6 -8 12 -11 11 -17
-5 -4 -11 -12 -24 -18 -28 -6 -5 -1 -6 11 -2 21 6 21 4 10 -26 -9 -25 -9 -33
1 -36 6 -3 12 -11 12 -19 0 -8 7 -17 15 -20 8 -4 15 -15 15 -25 0 -10 5 -19
10 -19 6 0 10 -9 10 -19 0 -11 5 -23 10 -26 6 -3 10 -17 10 -31 0 -13 5 -24
10 -24 6 0 10 5 10 11 0 8 4 8 14 0 11 -9 15 -6 18 13 3 14 1 27 -4 28 -6 2
-4 16 3 31 11 23 10 30 0 37 -8 4 -10 13 -6 20 5 9 4 11 -3 6 -7 -4 -12 -2
-12 3 0 6 7 11 15 11 8 0 15 -9 15 -20 0 -24 22 -26 40 -5 7 8 17 15 23 15 5
0 3 -8 -6 -18 -29 -32 -19 -37 13 -7 16 15 27 32 24 37 -3 4 0 8 6 8 7 0 10 6
7 14 -8 20 4 28 20 15 10 -9 18 -6 33 11 25 29 26 38 2 17 -21 -19 -32 -22
-32 -7 0 22 53 60 73 54 14 -4 18 -2 15 7 -3 9 -17 13 -40 11 -20 -2 -39 1
-42 7 -4 5 -18 8 -31 5 -14 -2 -25 0 -25 6 0 6 4 9 8 6 4 -2 14 -1 22 5 11 6
11 9 2 9 -25 0 18 48 51 55 64 15 67 15 67 0 0 -13 3 -13 20 -3 17 11 22 10
31 -2 7 -11 8 -7 3 15 -4 20 -2 26 4 17 7 -10 14 -4 28 25 10 21 19 43 20 48
1 6 5 17 9 26 7 19 -10 35 -20 19 -7 -12 -45 -14 -45 -2 0 4 5 13 12 20 9 9 9
12 0 12 -7 0 -12 11 -12 25 0 25 -1 25 -80 25 -64 0 -80 3 -80 15 0 8 -4 15
-10 15 -5 0 -10 5 -10 11 0 5 5 7 10 4 6 -3 10 -1 10 4 0 6 5 11 10 11 6 0 10
-7 10 -15 0 -10 10 -15 30 -15 25 0 30 4 30 25 0 25 1 25 86 25 l87 0 -5 98
c-3 56 -1 87 3 72 7 -19 7 -17 3 10 -10 70 -17 90 -30 90 -10 0 -14 13 -14 40
0 30 4 40 16 40 12 0 15 9 12 48 -3 38 -7 46 -21 44 -24 -4 -21 15 3 23 19 6
18 8 -10 36 -16 17 -30 34 -30 39 0 15 18 21 24 8 3 -7 3 5 0 27 -3 22 -10 42
-15 44 -6 2 -14 14 -19 27 -8 20 -17 24 -49 24 -32 0 -40 4 -45 23 -15 56 -10
62 48 62 49 0 55 -2 59 -23 3 -14 -1 -26 -9 -29 -19 -7 -18 -33 1 -33 8 0 15
5 15 11 0 7 10 9 25 5 16 -4 25 -2 25 5 0 7 -11 22 -25 35 -19 17 -25 33 -25
64 0 38 -2 40 -30 40 -28 0 -30 2 -30 40 0 29 4 40 15 40 11 0 15 11 15 40 l0
40 40 0 40 0 0 40 c0 36 3 40 25 40 18 0 25 5 25 19 0 11 -4 23 -10 26 -5 3
-10 11 -10 16 0 6 4 8 9 5 5 -4 11 -1 13 4 2 6 13 12 25 12 18 2 20 6 12 26
-12 32 -11 50 4 49 50 -2 67 4 67 23 0 17 -7 20 -40 20 -42 0 -56 16 -17 22
15 2 23 11 25 28 4 28 21 52 31 45 4 -2 14 4 23 14 14 16 13 19 -3 30 -11 6
-19 7 -19 2 0 -5 6 -12 13 -14 6 -3 2 -6 -10 -6 -15 -1 -20 4 -17 17 4 12 -4
21 -27 29 -40 15 -52 8 -15 -8 14 -7 26 -15 26 -19 0 -12 -31 -69 -41 -75 -17
-11 -31 6 -17 22 10 13 8 14 -12 11 -14 -1 -25 -10 -25 -18 0 -23 -29 -18 -40
7 -6 14 -22 24 -43 28 -45 8 -27 28 31 34 4 1 7 8 7 16 0 11 -12 15 -44 15
-25 0 -47 -4 -51 -9z"/>
<path d="M6070 5933 c-49 -18 -90 -83 -90 -142 0 -53 7 -69 41 -86 63 -33 128
-8 144 55 10 43 -15 64 -76 61 -45 -2 -49 -56 -6 -64 18 -4 17 -5 -5 -6 -54
-2 -60 70 -11 109 14 11 39 20 54 20 24 0 29 4 29 24 0 32 -36 45 -80 29z"/>
<path d="M7024 5928 c-3 -4 -8 -30 -11 -58 -5 -44 -8 -50 -30 -50 -31 0 -39
-22 -24 -70 17 -58 29 -63 113 -53 59 6 73 11 76 27 5 25 -16 37 -55 30 -26
-5 -33 -3 -33 9 0 10 11 17 28 19 21 2 27 8 27 28 0 19 -6 26 -23 28 -38 6
-23 36 18 36 31 1 35 4 35 26 0 23 -4 25 -58 30 -32 3 -61 2 -63 -2z"/>
<path d="M7923 5920 c-53 -32 -52 -99 1 -133 14 -10 26 -25 26 -33 0 -13 -7
-14 -40 -9 -33 6 -41 4 -47 -11 -4 -11 1 -23 16 -36 53 -42 131 -6 131 60 -1
41 -13 63 -49 82 l-25 13 22 17 c25 20 29 55 8 63 -7 3 -27 -3 -43 -13z"/>
<path d="M8114 5928 c-57 -30 -60 -90 -8 -136 43 -38 37 -56 -17 -47 -32 6
-40 3 -46 -11 -16 -42 78 -71 124 -39 44 31 37 114 -12 137 -28 13 -33 33 -10
42 18 7 20 52 2 59 -7 3 -22 0 -33 -5z"/>
<path d="M6440 5926 c0 -3 -7 -53 -16 -112 -18 -121 -15 -129 46 -119 19 2 48
5 63 5 34 0 48 27 22 46 -10 8 -29 11 -46 7 -22 -4 -29 -2 -29 10 0 8 13 17
31 21 25 5 30 10 27 28 -2 15 -11 24 -25 26 -38 6 -27 30 15 34 32 3 37 6 37
28 0 24 -3 25 -62 28 -35 2 -63 1 -63 -2z"/>
<path d="M7221 5904 c-31 -40 -27 -71 15 -109 44 -40 38 -57 -17 -49 -36 6
-39 5 -39 -18 0 -33 38 -53 86 -45 44 7 63 31 64 79 0 30 -6 42 -36 66 l-36
30 22 15 c29 20 23 51 -11 55 -19 2 -33 -5 -48 -24z"/>
<path d="M9542 5923 c-21 -8 -43 -61 -36 -88 3 -14 19 -34 35 -46 44 -31 39
-52 -10 -44 -43 7 -56 -3 -46 -35 4 -12 19 -22 40 -26 54 -10 84 2 102 41 15
32 15 38 0 69 -9 19 -25 37 -36 41 -24 7 -28 30 -6 39 8 3 15 17 15 31 0 20
-5 25 -22 24 -13 0 -29 -3 -36 -6z"/>
<path d="M6678 5900 c-48 -37 -100 -215 -69 -234 13 -8 51 1 50 12 -5 36 3 52
26 52 20 0 25 -5 25 -24 0 -33 25 -53 45 -36 13 11 15 30 10 109 -8 132 -11
141 -39 141 -13 0 -35 -9 -48 -20z"/>
<path d="M6801 5907 c-16 -20 -3 -47 23 -47 20 0 21 -4 17 -86 l-3 -86 28 4
c28 3 29 5 32 63 3 91 8 105 38 105 22 0 25 4 22 28 -3 26 -5 27 -74 30 -52 2
-74 -1 -83 -11z"/>
<path d="M7364 5905 c-9 -23 3 -45 26 -45 19 0 20 -6 20 -85 0 -83 1 -85 24
-85 29 0 36 21 36 107 0 60 1 62 27 65 31 3 44 35 21 49 -7 5 -44 9 -81 9 -51
0 -69 -4 -73 -15z"/>
<path d="M7740 5898 c-31 -33 -46 -65 -65 -137 -19 -73 -13 -104 18 -99 15 2
23 12 27 33 4 21 11 31 28 33 18 3 22 -1 22 -22 0 -26 25 -47 48 -39 13 5 16
160 3 218 -8 40 -49 46 -81 13z"/>
<path d="M9184 5905 c-9 -24 3 -45 27 -45 19 0 21 -5 19 -72 -3 -94 -3 -95 15
-102 30 -11 45 22 45 100 l0 74 30 0 c25 0 30 4 30 24 0 30 -16 36 -96 36 -48
0 -66 -4 -70 -15z"/>
<path d="M6237 5884 c-27 -27 -34 -58 -39 -169 -3 -58 -2 -60 22 -60 21 0 26
6 31 38 3 20 9 40 12 43 3 3 22 -10 42 -31 20 -20 44 -35 53 -33 30 6 25 39
-9 74 -22 22 -30 37 -23 42 21 13 34 52 28 77 -12 50 -76 60 -117 19z"/>
<path d="M7023 5613 c-6 -2 -18 -30 -24 -61 -7 -31 -18 -61 -25 -67 -8 -6 -15
-55 -20 -132 l-7 -123 26 0 c22 0 27 6 35 43 l9 42 17 -37 c11 -25 23 -38 35
-38 28 0 34 32 15 79 -15 39 -15 42 5 74 25 41 27 63 5 71 -27 10 -34 7 -54
-26 -16 -26 -20 -29 -20 -13 0 13 17 31 44 50 47 31 67 72 44 86 -7 5 -19 7
-26 4 -7 -3 -17 6 -22 19 -10 28 -20 35 -37 29z"/>
<path d="M3644 5528 c-19 -9 -20 -13 -8 -46 13 -38 8 -57 -22 -86 -13 -13 -13
-16 -1 -16 8 0 22 16 31 35 9 19 20 35 24 35 11 0 42 -55 42 -74 0 -9 5 -16
10 -16 6 0 8 15 4 40 -5 32 -4 40 9 40 9 0 18 -10 20 -22 l4 -23 2 23 c0 12 8
22 16 22 11 0 15 11 15 39 0 22 5 41 13 44 6 2 9 8 5 12 -4 4 -27 2 -52 -5
-32 -9 -49 -9 -64 -1 -24 13 -21 13 -48 -1z"/>
<path d="M4869 5538 c-6 -21 -5 -39 2 -44 5 -3 9 4 9 15 0 24 5 26 24 9 11
-11 9 -17 -13 -35 -14 -13 -32 -23 -38 -23 -7 0 -13 -4 -13 -9 0 -5 -10 -12
-22 -16 -13 -4 -25 -8 -28 -10 -19 -8 -39 -14 -64 -20 -25 -5 -28 -4 -17 9 10
12 9 14 -9 9 -11 -3 -23 -10 -27 -16 -3 -6 -1 -7 5 -3 7 4 12 2 12 -3 0 -6 -8
-11 -19 -11 -25 0 -47 -25 -30 -36 8 -4 9 -3 5 4 -5 8 1 12 18 12 24 0 24 -1
10 -29 -8 -17 -17 -40 -19 -52 -5 -24 -15 -39 -15 -21 0 7 -16 12 -40 12 l-40
0 0 -40 0 -40 40 0 c37 0 40 -2 40 -28 0 -44 16 -52 107 -52 l83 0 -1 33 c0
17 -3 26 -6 20 -7 -18 -23 -16 -23 1 0 8 9 18 20 21 11 3 20 11 20 18 0 8 -3
8 -12 -1 -19 -19 -28 -14 -28 15 0 14 -8 35 -17 45 -16 18 -16 18 0 12 14 -5
17 0 15 34 -2 56 -10 67 -38 52 -26 -14 -38 -6 -20 15 17 21 33 19 57 -9 20
-22 38 -90 21 -80 -4 3 -8 0 -8 -5 0 -6 8 -11 17 -11 13 0 14 -3 5 -12 -7 -7
-12 -19 -11 -27 0 -12 4 -10 16 7 9 12 26 22 39 22 13 0 24 4 24 9 0 4 -11 7
-25 6 -14 -2 -23 0 -20 4 11 19 66 -1 61 -22 -1 -7 -1 -9 1 -4 8 14 32 7 36
-10 4 -17 5 -17 6 0 0 9 7 17 14 17 8 0 9 2 1 8 -7 4 -8 15 -3 27 6 15 8 16 8
4 1 -22 49 -72 61 -64 6 3 9 18 9 33 -2 24 -2 24 -6 5 -7 -38 -20 -26 -27 24
-4 32 -3 49 5 52 8 2 8 6 -1 11 -9 6 -10 25 -3 79 9 70 9 71 -14 71 -22 0 -23
-4 -25 -77 0 -43 -1 -84 -1 -90 1 -7 -3 -10 -8 -7 -5 3 -9 -6 -9 -20 0 -14 -5
-26 -11 -26 -5 0 -7 -4 -4 -10 3 -5 2 -10 -3 -10 -5 0 -8 19 -8 42 1 26 -4 43
-11 43 -6 0 -15 4 -20 9 -4 5 8 7 27 4 l36 -4 0 68 c1 66 1 67 -27 73 -16 4
-31 11 -34 16 -5 8 -34 13 -36 7z"/>
<path d="M6771 5491 c-11 -19 -14 -39 -33 -193 -7 -64 -15 -95 -22 -91 -6 3
-1 -4 10 -17 18 -18 25 -20 43 -11 16 9 21 21 21 51 0 47 7 49 42 13 26 -28
26 -29 12 -82 -7 -30 -17 -76 -20 -103 -6 -45 -5 -48 15 -48 31 0 101 38 132
71 30 32 29 64 -2 72 -14 4 -19 14 -19 38 0 27 -9 41 -47 75 -45 39 -47 43
-32 60 9 11 20 47 23 83 l7 64 -34 -6 c-30 -5 -36 -2 -46 19 -13 29 -36 31
-50 5z"/>
<path d="M7724 5445 c-35 -27 -64 -89 -64 -136 0 -46 47 -89 98 -89 54 0 82
25 89 77 5 39 3 43 -20 52 -36 14 -81 0 -85 -27 -2 -16 4 -25 20 -31 21 -9 21
-10 3 -10 -51 -2 -60 56 -16 100 20 19 40 29 60 29 23 0 31 5 31 18 0 47 -66
57 -116 17z"/>
<path d="M8301 5461 c-15 -10 -46 -223 -36 -249 7 -18 49 -11 52 8 10 76 15
91 31 88 13 -2 17 -14 17 -43 0 -35 3 -40 26 -43 25 -3 25 -2 42 115 9 66 13
121 8 126 -5 5 -17 7 -27 5 -14 -2 -21 -17 -28 -56 -8 -41 -14 -52 -29 -52
-16 0 -18 7 -16 43 4 60 -9 78 -40 58z"/>
<path d="M6546 5437 c-24 -20 -30 -33 -34 -80 -5 -61 9 -109 37 -130 9 -7 21
-30 26 -51 12 -46 37 -66 63 -50 45 28 94 142 75 173 -6 10 -11 40 -11 67 0
40 -5 53 -27 71 -35 31 -91 30 -129 0z"/>
<path d="M7487 5449 c-60 -35 -61 -200 -2 -223 78 -30 145 32 145 134 0 41 -5
56 -25 75 -26 27 -84 34 -118 14z"/>
<path d="M7907 5438 c-17 -75 -29 -200 -21 -208 7 -7 37 -7 80 -3 60 7 69 11
69 28 0 17 -8 20 -47 23 -53 3 -68 28 -20 34 21 2 28 9 30 31 3 22 -1 27 -17
27 -12 0 -21 7 -21 15 0 10 10 15 29 15 32 0 56 22 47 45 -4 11 -21 15 -65 15
-53 0 -59 -2 -64 -22z"/>
<path d="M8506 5448 c-8 -25 -26 -158 -26 -187 0 -16 5 -33 10 -36 18 -11 138
6 144 21 9 25 -24 46 -61 39 -26 -5 -33 -3 -33 10 0 9 9 15 24 15 47 0 59 55
13 62 -32 4 -23 22 15 28 27 4 34 10 36 33 3 27 3 27 -58 27 -40 0 -62 -4 -64
-12z"/>
<path d="M9055 5450 c-67 -5 -70 -6 -70 -30 0 -18 6 -26 23 -28 21 -3 22 -8
22 -87 0 -64 3 -84 15 -89 30 -11 45 22 45 100 0 66 2 75 18 73 34 -3 42 1 42
25 0 35 -17 42 -95 36z"/>
<path d="M9227 5449 c-48 -28 -63 -138 -27 -196 16 -28 26 -33 56 -33 77 0
114 47 114 142 0 64 -31 98 -87 98 -21 0 -46 -5 -56 -11z"/>
<path d="M7244 5435 c-9 -23 3 -45 26 -45 19 0 20 -6 20 -85 0 -83 1 -85 24
-85 30 0 36 16 36 101 l0 69 30 0 c25 0 30 4 30 24 0 30 -16 36 -96 36 -48 0
-66 -4 -70 -15z"/>
<path d="M8072 5438 c-20 -20 -14 -38 16 -44 28 -6 28 -6 27 -87 0 -72 2 -82
19 -85 27 -6 36 15 36 80 0 72 7 88 37 88 21 0 24 4 21 28 -3 26 -5 27 -73 30
-46 2 -74 -1 -83 -10z"/>
<path d="M6250 5421 c-13 -25 -13 -115 0 -163 12 -42 35 -59 77 -58 15 0 42
-2 58 -5 57 -12 95 53 95 161 0 57 -14 78 -42 63 -14 -8 -18 -21 -18 -64 0
-87 -30 -137 -42 -70 -2 12 -13 21 -25 23 -17 3 -24 -3 -29 -23 -11 -45 -24
-7 -24 71 0 56 -3 73 -16 78 -22 8 -22 8 -34 -13z"/>
<path d="M8704 5417 c-24 -21 -28 -33 -37 -125 -8 -78 -8 -105 2 -115 21 -21
46 5 49 52 2 22 7 41 11 41 4 0 23 -16 41 -35 22 -22 42 -35 55 -33 32 5 29
40 -6 76 -30 30 -31 34 -15 50 9 10 16 35 16 56 0 30 -5 38 -26 46 -39 15 -60
12 -90 -13z"/>
<path d="M4000 5280 l0 -80 40 0 40 0 0 40 c0 29 4 40 15 40 11 0 15 11 15 40
l0 40 -55 0 -55 0 0 -80z"/>
<path d="M3970 5086 c0 -42 9 -68 21 -60 5 3 9 0 9 -6 0 -7 -6 -10 -14 -7 -16
7 -50 -38 -41 -53 4 -6 -3 -22 -14 -36 l-21 -27 0 26 c0 14 -4 29 -10 32 -14
8 -12 -13 4 -59 8 -25 16 -34 20 -25 3 8 5 -15 4 -51 -2 -98 -1 -100 27 -100
23 0 25 -4 25 -40 l0 -40 46 0 c52 0 84 21 64 44 -9 12 -7 13 9 9 17 -4 21 -1
21 20 0 21 16 37 36 37 2 0 4 -13 4 -30 0 -22 -5 -30 -17 -30 -13 0 -14 -3 -6
-11 9 -9 18 -8 37 5 15 9 26 21 26 26 0 6 9 10 20 10 11 0 20 7 20 15 0 11 11
15 40 15 l40 0 0 145 0 145 -40 0 -40 0 0 -40 0 -40 -40 0 c-36 0 -41 3 -46
28 -7 35 -46 56 -62 33 -10 -14 -11 -14 -11 2 -1 13 -10 17 -41 17 l-40 0 0
40 c0 29 -4 40 -15 40 -10 0 -15 -10 -15 -34z"/>
<path d="M6615 5001 c-6 -6 -30 -11 -55 -13 l-45 -3 -11 -65 c-19 -106 -22
-147 -14 -159 5 -9 27 -11 79 -5 70 7 72 7 69 33 -3 24 -6 26 -45 23 -34 -3
-43 0 -43 12 0 10 9 16 24 16 28 0 51 24 42 45 -3 8 -17 15 -31 15 -42 0 -31
28 13 32 32 3 37 7 40 31 2 15 -2 27 -8 27 -6 0 -8 5 -5 10 8 13 2 13 -10 1z"/>
<path d="M6794 4993 c5 -9 0 -13 -14 -13 -31 0 -75 -28 -93 -60 -18 -29 -39
-113 -28 -105 5 2 18 -9 30 -25 19 -27 27 -30 76 -30 64 0 92 19 74 52 -9 16
-17 19 -41 14 -33 -7 -68 8 -68 28 0 19 35 56 53 56 50 0 62 35 26 73 -12 12
-19 16 -15 10z"/>
<path d="M8884 4989 c-52 -15 -68 -50 -65 -147 3 -105 127 -128 176 -32 17 34
20 112 4 142 -8 16 -69 51 -81 47 -2 0 -17 -5 -34 -10z"/>
<path d="M9063 4989 c-17 -6 -23 -16 -23 -39 0 -25 4 -30 25 -30 25 0 25 0 19
-75 -7 -85 4 -112 37 -94 13 6 19 21 19 43 0 18 3 54 6 80 6 39 10 46 29 46
25 0 38 21 29 45 -8 19 -46 29 -81 21 -14 -4 -29 -3 -32 2 -4 6 -15 6 -28 1z"/>
<path d="M9264 4985 c-10 -27 -32 -208 -27 -221 4 -11 20 -13 72 -9 36 2 69 5
74 5 4 0 7 11 7 25 0 26 -10 30 -62 26 -39 -3 -37 25 3 33 25 5 30 10 27 28
-2 15 -11 24 -26 26 -33 5 -21 26 16 30 34 3 56 30 43 51 -10 15 -122 21 -127
6z"/>
<path d="M9895 4987 c-66 -36 -60 -111 11 -153 31 -19 4 -39 -34 -26 -50 17
-72 -23 -30 -52 35 -25 85 -20 115 10 35 35 27 88 -19 126 l-33 27 23 16 c12
9 22 22 22 30 0 22 -32 35 -55 22z"/>
<path d="M6101 4962 c-67 -66 -38 -212 41 -212 73 0 128 75 115 157 -13 79
-101 110 -156 55z"/>
<path d="M7596 4968 c-3 -13 -6 -64 -6 -114 0 -107 5 -113 78 -85 110 43 121
155 20 207 -43 22 -85 18 -92 -8z"/>
<path d="M8357 4966 c-31 -29 -43 -95 -28 -154 20 -72 89 -86 147 -28 34 34
40 58 35 131 -6 72 -98 103 -154 51z"/>
<path d="M5667 4966 c-18 -19 -43 -234 -29 -248 6 -6 19 -7 30 -3 16 4 22 16
24 48 3 40 4 42 42 48 47 8 86 47 86 87 0 15 -12 38 -27 54 -21 22 -36 28 -69
28 -24 0 -49 -6 -57 -14z"/>
<path d="M6297 4974 c-4 -4 -7 -18 -7 -31 0 -18 5 -23 26 -23 l25 0 -3 -82
c-3 -83 -3 -83 22 -83 21 0 25 5 28 30 10 128 12 135 38 135 22 0 25 4 22 28
-3 26 -5 27 -73 30 -39 1 -74 0 -78 -4z"/>
<path d="M6874 4965 c-9 -24 3 -45 27 -45 20 0 21 -4 18 -82 l-4 -83 27 -3
c28 -3 29 0 40 133 2 22 9 31 28 35 18 4 25 12 25 30 0 24 -3 25 -78 28 -62 2
-78 0 -83 -13z"/>
<path d="M7248 4957 c-32 -29 -68 -123 -71 -185 -2 -44 0 -47 23 -47 19 0 26
7 34 33 11 40 46 46 46 7 0 -25 26 -46 48 -38 13 5 16 177 3 223 -9 35 -49 38
-83 7z"/>
<path d="M7920 4960 c-6 -10 -15 -67 -21 -125 -12 -114 -8 -132 30 -120 17 5
21 14 21 51 0 44 0 44 34 44 44 0 84 34 92 77 5 27 1 37 -24 63 -25 25 -39 30
-76 30 -35 0 -48 -5 -56 -20z"/>
<path d="M9625 4960 c-8 -27 1 -40 29 -40 23 0 24 -1 18 -86 l-5 -86 29 4 c27
3 29 6 32 53 4 96 11 115 37 115 30 0 39 14 25 40 -9 17 -21 20 -85 20 -65 0
-74 -2 -80 -20z"/>
<path d="M5895 4948 c-27 -25 -45 -98 -45 -191 0 -47 1 -48 28 -45 25 3 27 7
30 52 l3 49 43 -42 c69 -68 118 -38 56 33 -30 33 -31 37 -16 58 22 31 20 64
-4 88 -26 26 -63 25 -95 -2z"/>
<path d="M7513 4962 c-6 -4 -16 -30 -20 -57 l-8 -50 -14 32 c-28 68 -62 46
-85 -56 -20 -89 -20 -117 0 -125 21 -8 44 11 44 34 0 10 3 26 7 36 5 14 9 11
22 -16 18 -37 29 -44 49 -31 25 15 59 205 41 227 -13 16 -19 17 -36 6z"/>
<path d="M8164 4958 c-33 -16 -46 -55 -52 -156 l-5 -94 24 4 c19 2 26 12 33
43 5 22 11 42 13 44 2 3 21 -13 43 -34 33 -32 44 -37 57 -29 28 17 25 30 -12
67 l-37 37 21 26 c26 33 27 58 1 84 -22 22 -53 25 -86 8z"/>
<path d="M8597 4942 c-23 -25 -36 -66 -47 -140 -10 -72 -2 -93 29 -85 15 4 21
18 26 61 4 32 13 71 20 87 l13 30 1 -37 c1 -27 6 -38 21 -43 25 -8 40 1 40 24
0 9 7 26 15 37 15 17 16 12 13 -66 -3 -85 -3 -85 22 -85 19 0 26 6 31 30 11
52 9 149 -4 175 -12 23 -19 25 -89 27 -61 2 -79 -1 -91 -15z"/>
<path d="M7003 4523 c-27 -5 -30 -14 -39 -117 -8 -103 4 -126 67 -126 52 0 92
35 92 81 0 22 7 39 19 47 37 26 16 85 -37 108 -34 14 -58 15 -102 7z"/>
<path d="M8518 4522 c-54 -4 -51 1 -68 -125 -18 -127 -26 -121 131 -108 14 2
19 34 8 47 -8 10 -23 12 -51 7 -36 -5 -40 -4 -36 13 2 11 12 19 24 20 25 1 44
12 44 24 0 14 -31 41 -41 35 -5 -4 -9 1 -9 9 0 9 6 17 13 17 6 1 19 3 27 4 8
1 21 3 28 4 18 2 14 39 -5 48 -10 5 -39 7 -65 5z"/>
<path d="M6865 4507 c-48 -26 -94 -123 -98 -205 -2 -44 0 -47 22 -47 19 0 27
7 33 33 11 42 43 44 51 3 6 -28 30 -46 48 -35 12 7 12 196 0 227 -12 30 -31
38 -56 24z"/>
<path d="M7637 4513 c-3 -5 -7 -55 -8 -113 l-4 -105 28 -3 c37 -4 110 32 127
64 19 35 16 91 -7 116 -32 36 -123 63 -136 41z"/>
<path d="M7904 4488 c-39 -44 -44 -56 -64 -134 -18 -68 -18 -80 -6 -92 20 -21
43 -8 51 27 9 41 40 42 48 2 6 -28 30 -46 48 -35 12 7 12 196 -1 228 -12 33
-49 35 -76 4z"/>
<path d="M8313 4495 c-40 -17 -73 -69 -73 -113 0 -68 87 -116 151 -82 37 21
14 69 -26 54 -30 -12 -65 5 -65 30 0 27 42 66 71 66 21 0 29 19 17 43 -10 20
-32 21 -75 2z"/>
<path d="M7207 4489 c-24 -14 -23 -101 3 -156 18 -40 21 -43 60 -43 30 0 47 6
65 24 41 41 61 158 29 170 -35 13 -41 6 -46 -50 -4 -41 -10 -61 -24 -71 -16
-12 -20 -11 -31 4 -7 9 -13 38 -13 64 0 52 -15 73 -43 58z"/>
<path d="M7540 4475 c-5 -14 -10 -37 -10 -51 0 -32 -18 -31 -26 2 -5 20 -12
24 -32 22 -22 -3 -28 -11 -39 -53 -28 -106 -31 -135 -17 -150 20 -19 43 -8 50
24 11 43 15 44 35 12 20 -33 26 -36 47 -23 15 10 45 159 40 204 -4 43 -34 50
-48 13z"/>
<path d="M8157 4483 c-3 -10 -8 -36 -12 -58 l-8 -40 -13 33 c-16 36 -47 43
-63 15 -5 -10 -17 -54 -26 -97 -17 -76 -17 -80 0 -92 25 -19 42 -3 51 49 l7
42 15 -35 c17 -42 30 -52 52 -40 18 9 55 179 48 216 -4 25 -45 31 -51 7z"/>
<path d="M3906 4482 c-14 -25 -36 -127 -31 -145 5 -17 4 -19 -4 -7 -6 8 -11
13 -12 10 0 -3 -2 -16 -3 -28 -2 -13 -7 -27 -13 -30 -5 -4 -13 -16 -16 -26 -6
-16 -5 -17 8 -6 10 8 15 9 15 1 0 -25 36 -9 49 22 l14 32 6 -35 c3 -19 4 -52
2 -72 -3 -36 -5 -38 -36 -38 -20 0 -35 -6 -39 -15 -4 -12 3 -15 34 -15 29 0
40 4 40 15 0 11 11 15 40 15 l40 0 0 40 c0 29 -4 40 -15 40 -11 0 -15 11 -15
40 0 29 4 40 15 40 11 0 15 11 15 40 0 22 -4 40 -10 40 -5 0 -10 13 -10 29 0
16 -6 33 -12 38 -17 13 -57 23 -62 15z"/>
<path d="M4400 4421 c0 -19 -6 -21 -80 -21 l-80 0 0 -80 0 -80 -40 0 -40 0 0
-160 0 -160 80 0 80 0 0 40 0 40 53 -1 c28 0 46 -3 40 -6 -19 -7 -16 -20 7
-26 25 -6 26 -34 3 -40 -14 -4 -15 -5 -2 -6 8 0 24 5 35 13 19 15 19 15 0 29
-11 8 -16 19 -12 26 6 9 11 9 22 0 12 -10 14 2 14 80 0 74 -3 91 -15 91 -11 0
-15 -11 -15 -40 0 -34 -4 -41 -25 -46 -13 -3 -42 -2 -62 4 -21 5 -30 10 -20
11 21 1 22 27 1 39 -13 7 -9 13 20 33 27 18 36 31 36 52 0 25 -3 27 -40 27
l-40 0 0 40 0 40 91 0 c80 0 89 2 75 15 -8 8 -31 15 -50 15 -30 0 -36 4 -36
21 0 11 5 29 10 39 7 13 7 21 0 25 -5 3 -10 -3 -10 -14z"/>
<path d="M3920 3880 l0 -120 -38 0 c-32 0 -39 -4 -51 -31 -12 -27 -12 -33 0
-40 12 -7 11 -9 -2 -9 -8 0 -20 5 -27 12 -9 9 -15 9 -24 0 -18 -18 -28 -14
-28 11 0 30 -18 47 -49 48 -15 0 -21 3 -15 5 7 3 10 13 7 23 -6 23 25 54 48
48 11 -3 19 -1 19 4 0 14 -58 11 -64 -3 -5 -10 -7 -10 -12 0 -3 7 -26 12 -56
12 -43 0 -49 2 -39 14 10 12 8 15 -11 19 l-23 4 23 8 c29 10 28 25 -2 25 -14
0 -32 -10 -40 -22 -9 -12 -16 -19 -16 -15 0 4 -11 0 -25 -9 -14 -9 -24 -19
-21 -21 8 -8 -18 -31 -30 -26 -6 2 -30 -7 -54 -21 -25 -14 -37 -26 -29 -29 8
-2 5 -3 -7 -1 -27 5 -103 -31 -83 -39 8 -2 -1 -5 -19 -4 -19 0 -37 -4 -40 -9
-11 -14 -98 -17 -122 -4 -25 13 -42 4 -20 -10 8 -6 10 -10 4 -10 -5 0 -19 7
-30 15 -11 8 -14 15 -6 15 6 0 12 5 12 11 0 5 -4 7 -10 4 -5 -3 -10 -2 -10 3
0 6 -11 13 -25 16 -16 4 -23 11 -19 18 6 9 9 9 12 0 2 -7 8 -12 12 -12 5 0 2
12 -6 28 -7 15 -14 34 -14 42 -1 11 -4 9 -13 -5 -12 -21 -14 -26 -16 -50 -1
-11 -13 -15 -41 -15 l-40 0 0 -44 c0 -25 -5 -48 -11 -51 -6 -5 -4 -11 7 -19
12 -10 15 -20 10 -41 -6 -25 -10 -26 -39 -20 -18 4 -89 9 -159 12 l-128 5 0
-41 c0 -34 -3 -41 -20 -41 -11 0 -20 -4 -20 -10 0 -5 -9 -10 -20 -10 -16 0
-20 -7 -20 -30 0 -27 3 -30 34 -30 19 0 37 6 39 13 3 6 6 -2 6 -20 1 -31 2
-31 31 -20 17 6 30 15 30 19 0 4 9 8 20 8 11 0 20 -4 20 -8 0 -4 14 -13 30
-19 26 -10 30 -9 30 7 0 14 9 19 43 21 l42 4 -4 -42 c-3 -42 -4 -43 -41 -43
-34 0 -38 -3 -44 -31 -11 -55 -9 -58 27 -50 17 4 37 8 42 9 6 1 11 17 13 37
l3 35 80 0 79 0 0 -39 c0 -37 -2 -39 -42 -48 -34 -8 -37 -11 -16 -12 15 0 29
-5 32 -10 4 -5 14 -8 24 -6 9 2 32 4 50 4 34 1 44 16 15 24 -10 3 1 5 25 6 23
0 42 -3 42 -7 0 -10 -6 -10 145 -15 88 -3 99 -3 40 2 -80 7 -80 7 -20 9 33 1
69 5 81 8 13 3 28 -1 39 -13 16 -15 41 -19 161 -23 78 -3 140 -2 137 3 -2 4
-56 7 -119 7 -63 0 -114 4 -114 9 0 5 -18 11 -40 15 -39 6 -40 7 -40 46 0 36
3 40 25 40 23 0 25 -4 25 -40 l0 -40 83 -1 c54 -1 72 -4 52 -8 -20 -5 3 -9 74
-13 119 -6 182 4 81 13 -47 4 -26 6 78 7 l142 2 0 40 0 40 40 0 40 0 0 40 0
40 40 0 40 0 0 40 0 40 -40 0 -40 0 0 40 0 40 40 0 40 0 0 166 c0 161 -1 165
-20 159 -38 -12 -59 3 -56 41 2 34 2 34 -41 34 l-43 0 0 -120z"/>
<path d="M4240 3720 l0 -120 40 0 40 0 0 40 0 40 40 0 40 0 0 80 0 80 -80 0
-80 0 0 -120z"/>
<path d="M10683 3767 c-21 -28 -49 -72 -60 -97 -34 -74 -163 -210 -198 -210
-7 0 -17 12 -24 28 -13 29 -59 99 -78 120 -14 14 -33 16 -33 3 0 -5 -7 -16
-15 -24 -13 -13 -11 -20 14 -54 36 -50 64 -103 57 -110 -2 -3 -17 -6 -33 -8
-15 -2 -46 -8 -68 -14 -22 -6 -86 -11 -142 -11 -98 0 -102 1 -122 26 -27 35
-27 86 1 135 12 22 25 39 28 39 4 0 17 9 30 20 30 26 110 26 166 1 40 -18 41
-18 61 3 l21 22 -25 22 c-40 36 -63 45 -112 44 -119 -3 -240 -65 -241 -124 0
-9 -4 -20 -10 -23 -15 -9 -12 -151 4 -189 28 -67 113 -80 338 -51 99 13 123
14 129 3 22 -35 4 -316 -26 -422 -15 -49 -11 -96 7 -96 6 0 7 11 3 28 -5 21
-4 24 6 15 7 -7 9 -22 5 -39 -5 -20 -10 -24 -19 -15 -17 17 -37 13 -37 -6 0
-10 -7 -31 -15 -47 -8 -15 -15 -32 -15 -38 0 -13 -120 -257 -134 -271 -6 -7
-21 -28 -33 -47 -12 -20 -33 -49 -47 -65 -14 -17 -26 -33 -26 -36 0 -3 -16
-14 -35 -25 -24 -12 -41 -32 -52 -61 -10 -24 -24 -43 -30 -43 -7 0 -13 -7 -13
-17 0 -15 -2 -14 -20 2 -13 12 -27 15 -46 11 -22 -6 -25 -4 -20 9 3 9 6 19 6
21 0 2 15 4 34 4 38 0 61 21 52 46 -5 14 -16 16 -63 11 -31 -3 -62 -12 -69
-19 -16 -16 -37 -171 -30 -214 6 -28 1 -37 -57 -93 -68 -67 -141 -121 -164
-121 -8 0 -28 -14 -45 -30 -16 -17 -36 -30 -44 -30 -9 0 -12 -4 -9 -10 3 -6
-1 -7 -9 -4 -20 8 -20 18 -1 34 18 15 20 46 3 53 -20 7 -56 -10 -68 -34 -7
-12 -10 -37 -8 -55 2 -20 0 -34 -7 -34 -5 0 -4 -4 4 -9 9 -6 4 -10 -18 -13
-39 -6 -41 -4 -41 46 0 65 -9 86 -36 86 -46 0 -92 -72 -115 -178 -6 -29 -15
-52 -20 -52 -6 0 -8 -4 -5 -9 3 -4 -7 -8 -22 -8 -31 -1 -104 -19 -147 -38 -49
-22 -186 -65 -206 -65 -11 0 -19 -4 -19 -9 0 -5 -15 -11 -32 -14 -18 -3 -85
-19 -148 -37 -63 -17 -142 -38 -175 -46 -33 -8 -78 -19 -100 -25 -22 -6 -54
-13 -72 -16 -18 -3 -38 -11 -44 -19 -6 -8 -21 -14 -33 -14 -11 0 -52 -10 -91
-21 -38 -11 -85 -24 -103 -29 -18 -4 -39 -13 -47 -20 -8 -6 -24 -13 -37 -14
-32 -4 -101 -27 -112 -37 -6 -5 -16 -9 -24 -9 -22 0 -128 -53 -114 -58 37 -12
-26 -42 -100 -47 -21 -2 -44 -10 -53 -18 -13 -13 -10 -14 28 -9 39 5 41 4 27
-12 -13 -16 -12 -18 10 -15 14 2 31 0 38 -5 7 -4 19 -2 27 4 25 21 17 33 -17
27 -32 -5 -32 -5 -7 6 14 7 33 20 43 30 19 18 41 24 31 7 -9 -14 19 -12 33 2
10 10 17 10 32 0 30 -18 36 -14 12 8 -16 15 -29 19 -48 14 -20 -5 -25 -3 -22
7 2 8 17 15 31 17 15 2 27 9 27 16 0 17 53 28 88 20 26 -6 26 -6 7 9 -19 15
-18 16 14 7 33 -9 53 -20 36 -20 -4 0 -2 -7 5 -15 10 -12 7 -13 -22 -5 -47 14
-53 12 -34 -9 15 -16 23 -18 54 -9 20 6 42 14 47 18 6 4 35 11 65 15 30 4 60
11 65 15 13 10 67 26 185 55 52 13 111 28 130 33 143 41 185 54 190 59 3 3 -4
4 -15 1 -21 -5 -22 -4 -16 63 1 12 13 18 44 20 l42 4 -4 -39 c-3 -32 -1 -38
12 -33 9 3 32 9 53 13 32 6 34 8 18 17 -16 9 -10 13 36 23 30 7 57 10 59 8 2
-2 -10 -7 -28 -10 -17 -4 -30 -9 -27 -12 5 -5 138 24 171 38 40 16 81 29 125
40 44 10 61 17 209 79 40 17 80 31 87 31 8 0 14 5 14 12 0 6 3 8 6 5 4 -3 16
0 28 8 11 8 39 15 61 15 46 0 81 25 91 65 4 16 13 25 25 25 10 0 19 5 19 10 0
6 7 10 16 10 13 0 15 -7 11 -37 -7 -45 3 -66 29 -61 13 2 20 13 22 33 7 87 14
117 30 123 25 9 178 155 279 266 45 49 56 55 72 46 39 -20 81 -12 117 24 30
30 34 40 34 85 0 49 -15 98 -35 114 -6 5 -3 7 6 4 10 -3 25 4 36 16 52 59 183
305 183 344 0 10 4 23 9 28 15 16 77 235 91 320 10 63 18 204 20 378 0 4 9 7
20 7 11 0 20 4 20 10 0 5 27 28 60 50 33 22 64 49 70 60 6 11 21 30 33 44 46
49 88 151 92 220 2 36 0 68 -5 71 -4 3 -25 -19 -47 -48z"/>
<path d="M290 3566 c0 -5 8 -18 18 -29 17 -20 16 -20 -13 -13 -18 4 -25 3 -17
-2 7 -5 11 -15 8 -23 -16 -51 -16 -52 -31 -39 -13 11 -15 8 -15 -15 0 -17 9
-34 25 -47 14 -11 25 -24 25 -29 0 -5 -11 -9 -25 -9 -22 0 -25 -4 -25 -40 l0
-40 -80 0 -80 0 0 -40 c0 -22 -5 -40 -10 -40 -7 0 -7 -7 0 -21 6 -11 9 -25 6
-32 -3 -9 -5 -9 -5 1 -1 20 -25 13 -44 -13 -12 -17 -14 -26 -5 -31 6 -4 17 1
24 11 8 10 16 16 19 13 3 -3 -6 -19 -20 -36 -15 -18 -23 -37 -19 -46 4 -10 0
-18 -10 -22 -15 -6 -16 -34 -16 -260 l1 -255 29 -29 c39 -40 57 -38 31 4 -12
18 -21 38 -21 45 0 22 18 11 32 -19 11 -26 18 -30 50 -30 21 0 38 -5 38 -11 0
-5 13 -15 30 -20 16 -6 30 -14 30 -18 0 -9 -69 -31 -98 -31 -11 0 -23 -6 -26
-12 -5 -10 -7 -10 -12 0 -4 8 -16 -2 -35 -28 -16 -22 -34 -40 -39 -40 -6 0
-10 -18 -10 -40 0 -29 4 -40 15 -40 8 0 15 6 15 13 0 8 4 7 10 -3 7 -11 10 0
10 38 0 52 13 69 25 33 7 -24 30 -18 63 16 24 26 27 33 13 33 -15 0 -42 -31
-36 -41 7 -10 -18 -13 -28 -3 -3 4 0 19 8 35 12 22 21 28 45 26 22 -1 30 -7
30 -20 0 -11 5 -17 13 -14 6 2 11 14 9 25 -2 15 2 22 12 22 9 0 16 -6 16 -14
0 -8 6 -13 13 -12 16 2 54 25 43 26 -6 0 -1 7 10 15 18 14 17 15 -8 4 -15 -7
-25 -16 -22 -20 3 -5 -2 -9 -10 -9 -10 0 -13 6 -10 15 4 8 13 15 20 15 8 0 19
12 24 26 13 34 13 34 -15 34 -22 0 -25 4 -25 40 l0 40 40 0 40 0 0 80 0 80 80
0 80 0 0 -40 0 -40 40 0 40 0 0 40 c0 29 4 40 15 40 11 0 15 -11 15 -40 0 -22
5 -40 10 -40 6 0 10 -47 10 -120 0 -73 -4 -120 -10 -120 -5 0 -10 -15 -10 -34
0 -26 5 -36 20 -41 16 -5 18 -10 10 -26 -14 -25 -30 -24 -37 1 -3 11 -9 20
-14 20 -5 0 -9 18 -9 40 l0 40 -85 0 -85 0 0 -41 c0 -22 4 -38 9 -35 5 4 7 -3
4 -15 -4 -12 0 -25 8 -30 19 -12 69 -11 69 1 0 6 -6 10 -12 10 -23 0 -44 19
-31 28 19 12 123 2 123 -13 0 -7 6 -16 13 -19 10 -5 10 -7 -1 -12 -6 -3 -12
-10 -12 -15 0 -6 6 -7 13 -2 19 12 40 10 60 -6 16 -13 17 -9 19 70 l2 84 5
-80 c3 -44 3 -81 -1 -83 -5 -2 -8 -12 -8 -23 0 -13 5 -17 16 -12 14 5 14 3 2
-16 -10 -17 -11 -23 0 -30 9 -5 10 -15 4 -31 -8 -22 -9 -20 -15 18 -8 45 -27
67 -27 30 0 -18 -2 -20 -10 -8 -14 22 -17 10 -12 -42 3 -33 9 -48 18 -48 10 0
14 -12 14 -40 l0 -40 -120 0 -120 0 0 -40 0 -40 40 0 40 0 0 -80 0 -80 40 0
40 0 0 -40 0 -40 55 0 55 0 0 40 c0 22 5 40 10 40 6 0 10 18 10 40 0 38 -1 40
-31 40 -28 0 -31 3 -25 23 3 12 6 30 6 40 0 10 8 17 18 17 14 0 17 7 14 40 -5
50 12 53 35 5 9 -19 25 -36 37 -38 20 -4 20 -4 -1 -6 -23 -1 -23 -4 -23 -121
l0 -120 71 0 c70 0 71 0 65 -24 -4 -15 0 -28 9 -36 8 -7 13 -15 11 -19 -2 -3
16 -4 40 -2 l44 3 0 -41 0 -41 65 0 c36 0 65 -4 65 -9 0 -5 -11 -18 -25 -29
-14 -11 -25 -25 -25 -31 0 -6 -7 -11 -15 -11 -11 0 -15 -11 -15 -40 0 -29 4
-40 15 -40 12 0 15 -16 15 -80 l0 -80 -42 -2 c-24 0 -48 -1 -53 -1 -6 0 -10
-16 -8 -36 1 -20 -1 -26 -3 -13 -7 30 -22 28 -16 -3 2 -14 9 -25 14 -25 6 0 7
-8 3 -17 -13 -31 -14 -82 -2 -91 17 -13 89 -23 82 -11 -4 5 3 9 14 9 17 0 21
6 21 31 0 29 -2 30 -32 25 -26 -5 -28 -4 -12 3 31 13 37 39 14 53 -25 16 -25
24 0 24 13 0 19 -5 16 -13 -3 -7 -2 -13 3 -13 5 0 14 -21 20 -47 l10 -48 -5
45 c-11 85 -10 130 3 130 8 0 9 -9 2 -32 -11 -40 -11 -38 1 -38 6 0 10 10 11
23 0 12 3 16 6 10 9 -25 23 -13 17 15 -4 18 -3 23 4 14 12 -17 22 -17 33 0 7
11 9 11 9 -1 0 -11 3 -11 15 -1 8 7 15 9 15 5 0 -4 6 -3 13 3 17 14 57 11 57
-4 0 -18 -27 -37 -35 -24 -3 5 -1 10 4 10 6 0 11 5 11 10 0 6 -13 4 -30 -5
-19 -10 -32 -27 -38 -48 -8 -29 -9 -30 -14 -9 -3 12 -2 22 3 22 19 0 8 16 -12
17 -12 1 -19 -1 -16 -4 4 -3 -3 -13 -13 -22 -13 -11 -23 -39 -30 -84 -11 -71
-8 -87 15 -87 16 0 38 34 28 44 -3 3 -2 6 4 6 6 0 13 -9 16 -20 3 -12 14 -20
26 -20 21 0 25 -8 22 -42 -2 -20 24 -24 35 -6 5 8 2 9 -10 5 -14 -6 -17 -3
-12 9 4 9 2 22 -4 28 -6 8 -3 38 9 89 10 42 15 80 12 83 -3 4 0 5 8 2 8 -2 16
-15 18 -28 5 -32 13 -39 13 -12 0 12 4 22 8 22 10 0 10 -46 0 -56 -5 -4 -8
-20 -8 -36 0 -32 23 -47 49 -31 15 9 18 23 24 96 1 15 6 27 11 27 11 0 -3
-107 -17 -134 -7 -11 -19 -26 -27 -33 -13 -10 -11 -11 8 -6 13 3 22 1 22 -6 0
-6 -5 -11 -10 -11 -19 0 -33 -46 -21 -66 9 -17 10 -16 11 7 0 15 10 39 21 54
18 22 19 29 8 36 -10 6 -11 11 -2 20 8 8 13 3 18 -20 4 -17 13 -31 20 -31 8 0
11 -7 8 -20 -4 -15 0 -20 16 -20 11 0 21 -5 21 -11 0 -6 -7 -8 -16 -5 -8 3
-13 2 -10 -2 2 -4 -2 -18 -10 -32 -10 -19 -13 -21 -14 -7 0 10 -8 17 -20 17
-11 0 -20 4 -20 9 0 12 33 9 43 -4 5 -6 7 -4 4 5 -2 8 -10 14 -17 12 -8 -2 -9
5 -5 20 7 21 6 21 -14 -4 -11 -14 -21 -32 -21 -40 0 -7 -9 -19 -20 -26 -11 -7
-20 -8 -20 -4 0 5 -14 7 -31 4 -20 -3 -29 -9 -25 -18 3 -9 -2 -14 -14 -14 -24
0 -25 -8 -5 -34 12 -16 15 -17 15 -4 0 9 9 18 21 21 18 5 20 2 16 -19 -2 -14
1 -31 8 -38 7 -6 16 -22 20 -35 l7 -23 21 21 c19 19 20 24 8 43 -11 18 -11 20
4 14 9 -3 18 -6 20 -6 2 0 1 -9 -2 -20 -3 -12 0 -20 6 -20 7 0 9 4 6 10 -3 5
1 22 9 37 l15 28 1 -30 c1 -26 3 -27 10 -10 7 17 9 17 9 3 1 -10 5 -18 9 -18
5 0 7 15 5 32 -4 32 -3 32 12 -7 8 -22 15 -41 15 -43 0 -1 3 -1 8 -1 22 4 42
-2 37 -11 -3 -5 -12 -7 -19 -4 -8 3 -17 0 -22 -7 -4 -8 -3 -10 4 -5 7 4 12 3
12 -3 0 -5 -5 -13 -11 -17 -8 -5 -4 -13 12 -26 24 -19 24 -19 2 -13 -14 4 -23
2 -23 -4 0 -6 9 -11 20 -11 18 0 40 -26 40 -48 0 -5 -22 -20 -50 -33 -27 -13
-50 -26 -50 -29 0 -4 -7 -15 -16 -26 -15 -19 -16 -19 -9 1 3 11 3 16 -2 12 -9
-10 -11 -87 -2 -81 4 2 9 -5 12 -16 3 -11 19 -26 36 -33 28 -12 29 -13 11 -25
-24 -15 -26 -35 -5 -52 13 -11 21 -9 46 9 16 12 34 19 40 15 7 -4 9 0 5 12 -7
23 8 49 22 40 6 -4 9 7 7 28 -2 24 1 36 12 40 11 4 13 2 9 -9 -18 -45 -18 -50
0 -30 l17 20 -8 -20 c-5 -11 -9 -36 -9 -55 -1 -30 4 -37 34 -53 19 -10 26 -15
15 -12 -14 4 -17 3 -9 -5 13 -13 46 -2 37 13 -4 6 2 8 15 5 16 -4 19 -2 15 10
-4 10 -2 13 5 8 11 -7 17 13 13 38 -1 5 6 6 15 2 15 -6 15 -5 0 18 -20 32 -20
35 2 31 9 -1 16 -8 14 -14 -1 -6 1 -11 5 -10 18 3 52 -14 47 -22 -3 -5 -15 -4
-27 3 -20 10 -21 9 -9 -5 11 -13 10 -16 -5 -20 -16 -4 -15 -6 5 -12 12 -4 22
-11 22 -16 0 -20 38 -7 67 23 55 57 68 99 52 168 -2 8 -17 21 -32 29 -34 17
-29 25 7 11 21 -8 27 -7 24 2 -3 9 -26 13 -66 13 -34 0 -62 3 -62 8 0 4 16 7
37 7 54 0 35 9 -26 13 -43 2 -54 -1 -62 -16 -9 -16 -8 -17 10 -5 11 7 24 9 28
4 4 -4 0 -12 -10 -17 -9 -6 -17 -15 -17 -21 0 -7 4 -7 13 0 6 5 23 13 37 17
21 7 20 3 -13 -27 -21 -20 -37 -46 -38 -59 -1 -18 -3 -16 -10 11 -4 19 -6 41
-4 47 2 7 1 12 -3 11 -12 -2 -45 14 -72 35 l-25 19 32 -7 c18 -3 39 -3 47 2
10 6 -1 8 -32 7 -68 -2 -67 -2 -41 -25 l24 -21 -28 7 c-24 6 -29 3 -40 -24
-13 -31 -31 -34 -20 -3 4 9 2 13 -4 9 -6 -4 -23 -1 -37 7 -19 10 -23 15 -13
19 8 3 20 0 26 -6 6 -6 14 -7 18 -3 4 4 1 11 -7 17 -13 8 -13 10 0 19 8 5 10
10 4 10 -6 0 -9 14 -7 32 2 25 1 28 -5 14 -7 -15 -10 -17 -17 -6 -9 15 28 51
48 46 7 -1 9 -1 6 1 -4 2 2 21 12 41 48 96 50 104 34 122 -8 9 -15 20 -15 25
0 4 -8 14 -17 21 -17 13 -17 13 0 14 11 0 21 -9 24 -20 3 -11 13 -20 22 -20
14 0 14 -2 1 -10 -10 -6 -11 -10 -2 -10 16 0 16 -37 -1 -43 -9 -4 -8 -8 3 -16
13 -10 8 -15 -12 -12 -5 0 -8 -8 -8 -19 0 -11 5 -20 11 -20 5 0 8 4 4 9 -7 13
12 24 26 16 7 -5 4 -13 -7 -26 -9 -10 -21 -16 -25 -13 -5 3 -9 1 -9 -5 0 -5 5
-13 10 -16 6 -4 8 -10 6 -14 -4 -6 14 -11 57 -14 9 -1 17 -4 17 -7 0 -4 12 -5
28 -2 24 3 30 -2 45 -33 16 -34 20 -37 50 -31 18 4 34 11 35 16 2 6 15 10 28
10 22 0 24 4 23 43 -1 23 -3 34 -6 25 -9 -35 -21 -17 -13 19 5 20 8 39 8 42 0
3 0 22 2 41 1 29 3 31 10 15 4 -11 7 -31 5 -45 -1 -14 0 -17 2 -8 5 20 33 13
33 -8 0 -8 5 -14 11 -14 6 0 9 7 6 15 -4 8 -2 17 2 20 5 2 7 -17 4 -43 -3 -37
0 -52 12 -62 15 -12 19 -12 31 5 8 11 11 28 8 39 -6 18 -5 19 10 7 14 -12 16
-11 16 7 0 11 4 22 9 24 5 2 2 10 -7 18 -14 13 -15 12 -9 -3 4 -10 2 -17 -5
-17 -7 0 -8 11 -3 33 28 126 1 153 -71 70 l-42 -47 -7 33 c-8 37 -1 51 18 32
9 -9 9 -14 -2 -20 -8 -5 -9 -11 -3 -15 5 -3 13 1 16 10 7 19 -24 70 -34 54
-12 -20 -21 37 -19 121 2 80 8 91 36 64 17 -18 29 -13 17 7 -4 7 -8 24 -8 38
-1 14 -7 25 -13 24 -7 -1 -36 -2 -64 -2 -49 -2 -51 -3 -47 -27 3 -13 0 -26 -5
-28 -6 -2 -3 -6 6 -10 11 -4 17 -1 17 8 0 8 9 15 21 15 11 0 18 -4 15 -9 -4
-5 0 -12 6 -15 7 -3 3 -3 -9 0 -13 3 -23 1 -23 -5 0 -6 -8 -11 -19 -11 -21 0
-48 26 -32 32 9 3 4 65 -10 117 -2 9 4 16 16 18 16 2 17 1 3 -5 -14 -6 -15
-10 -3 -25 12 -16 13 -16 19 8 4 14 11 25 17 25 6 0 7 -5 3 -12 -5 -8 -2 -9
10 -5 10 4 24 7 32 7 9 0 13 4 9 9 -3 6 7 6 27 0 18 -5 35 -9 37 -9 2 0 1 -9
-2 -20 -7 -26 -3 -25 16 4 15 22 14 23 -1 22 -15 -1 -17 14 -20 122 l-3 122
-79 0 c-79 0 -80 0 -80 25 0 23 -4 25 -40 25 l-40 0 0 55 0 55 -40 0 c-37 0
-40 2 -40 29 0 24 -5 30 -32 37 -26 7 -12 9 65 12 53 1 97 7 97 12 0 6 7 10
15 10 8 0 15 -4 15 -10 0 -5 18 -10 40 -10 l40 0 0 40 0 40 40 0 40 0 0 40 c0
22 -4 40 -10 40 -5 0 -10 6 -10 14 0 25 -28 39 -65 32 -26 -5 -35 -12 -35 -26
0 -11 -4 -20 -10 -20 -15 0 -12 29 4 46 8 8 21 14 29 14 22 0 24 7 17 55 -6
42 -5 47 22 66 15 11 28 16 28 10 0 -6 5 -11 11 -11 7 0 9 10 5 26 -5 17 -3
23 4 19 5 -3 10 -1 10 4 0 7 42 11 120 11 l120 0 0 40 c0 22 5 40 10 40 14 0
-7 40 -29 57 -21 16 -39 17 -23 1 21 -21 13 -36 -20 -40 -21 -4 -37 1 -50 14
-10 10 -22 18 -28 18 -5 0 -10 7 -10 16 0 13 3 14 14 5 10 -8 16 -9 21 -1 3 5
1 10 -5 10 -8 0 -7 6 1 21 6 12 8 36 5 53 l-6 31 15 -25 c8 -14 14 -39 15 -56
0 -31 1 -32 49 -32 42 0 48 3 43 17 -3 8 10 1 29 -17 18 -17 36 -27 37 -22 2
6 7 8 12 5 9 -6 34 95 25 103 -3 3 -5 -3 -5 -13 0 -10 -2 -16 -5 -13 -9 9 7
88 16 83 11 -7 26 22 35 70 4 22 22 75 39 117 18 42 30 79 27 82 -3 3 2 14 10
23 9 10 23 32 32 50 13 27 14 32 1 37 -8 3 -15 12 -15 21 0 13 16 19 45 16 6
0 9 18 7 44 -4 40 -2 45 17 45 12 0 21 6 21 14 0 8 13 28 30 46 16 18 30 36
30 41 0 20 25 59 35 55 7 -2 10 7 9 26 -3 42 -13 47 -20 10 l-6 -32 -123 0
c-138 0 -135 -2 -135 83 0 21 -4 36 -9 33 -12 -8 -11 -78 1 -94 16 -19 1 -27
-16 -9 -12 11 -14 28 -11 64 l5 48 -18 -50 c-9 -27 -14 -51 -10 -53 12 -5 10
-19 -5 -34 -14 -15 -52 -146 -44 -154 2 -3 9 9 15 25 15 43 22 39 12 -6 -5
-21 -12 -51 -15 -66 -4 -20 -10 -27 -20 -23 -10 4 -15 -1 -15 -14 0 -11 -5
-20 -11 -20 -7 0 -9 -10 -7 -25 3 -13 2 -23 -1 -20 -4 2 -11 -16 -17 -41 -6
-24 -7 -44 -2 -44 4 0 8 5 8 12 0 6 3 8 7 5 3 -4 -3 -16 -15 -27 -12 -12 -22
-26 -22 -32 0 -6 8 -4 18 5 10 10 24 17 30 17 19 0 33 -37 30 -78 l-3 -39 -33
25 c-18 14 -37 32 -43 41 -9 14 -10 14 -5 -1 3 -10 1 -18 -4 -18 -6 0 -10 -8
-10 -18 0 -10 -3 -22 -7 -26 -11 -10 -16 -37 -16 -81 1 -27 -2 -34 -6 -21 -6
16 -11 12 -25 -25 -10 -24 -19 -52 -20 -62 0 -10 -6 -21 -12 -25 -15 -10 -75
-132 -65 -132 5 0 16 10 24 22 9 13 16 18 16 11 1 -16 -27 -43 -45 -43 -8 0
-14 -10 -14 -24 0 -27 -16 -44 -22 -24 -3 8 -10 3 -18 -12 -7 -14 -26 -41 -42
-61 -22 -27 -28 -42 -23 -62 5 -20 2 -28 -15 -37 -11 -6 -26 -10 -32 -8 -5 2
-27 -11 -47 -30 -20 -18 -68 -55 -108 -82 -39 -26 -69 -51 -66 -54 6 -6 -22
-10 -41 -7 -5 1 -6 -5 -3 -13 3 -8 1 -17 -6 -20 -9 -5 -9 -7 1 -12 26 -12 10
-22 -20 -12 -29 10 -30 12 -13 25 11 7 14 13 8 13 -7 0 -15 -4 -18 -10 -3 -5
-29 -13 -58 -16 -39 -5 -47 -9 -32 -15 14 -5 15 -8 5 -9 -8 -1 -25 -3 -37 -4
-13 -2 -23 2 -23 8 0 6 -5 4 -10 -4 -6 -10 -10 -11 -10 -2 0 6 -5 12 -11 12
-5 0 -8 -4 -5 -9 3 -5 -16 -8 -43 -8 -27 1 -47 5 -44 10 2 4 -1 7 -6 7 -6 0
-11 -6 -11 -12 0 -9 -4 -8 -10 2 -5 8 -10 10 -10 4 0 -6 -13 -9 -32 -5 -32 4
-32 5 -8 12 22 6 22 7 4 8 -44 2 -139 42 -180 77 -24 19 -44 31 -44 25 0 -5 5
-13 10 -16 18 -11 11 -25 -12 -25 -19 0 -20 2 -8 10 13 9 13 11 0 19 -8 6 -11
13 -8 17 14 14 -13 45 -33 39 -11 -4 -19 -2 -19 4 0 6 -7 11 -15 11 -8 0 -15
-4 -15 -9 0 -14 -25 -20 -41 -10 -12 8 -12 10 0 18 8 5 20 7 28 4 8 -3 13 2
13 13 0 15 3 15 25 -6 14 -13 25 -19 25 -14 -1 14 -53 70 -72 77 -13 4 -18 17
-18 43 0 28 -3 35 -15 30 -8 -3 -15 -1 -15 3 0 5 -3 18 -6 28 -5 15 -4 16 6 3
10 -13 11 -12 6 3 -3 10 -6 21 -6 23 0 3 -4 2 -10 -1 -6 -3 -10 -1 -10 4 0 6
-7 11 -15 11 -8 0 -15 5 -15 10 0 6 7 10 15 10 8 0 15 -4 15 -10 0 -5 5 -10
10 -10 6 0 2 17 -8 38 -11 20 -17 43 -14 51 2 8 0 11 -6 7 -6 -4 -10 8 -9 32
1 20 -3 71 -8 112 -5 41 -8 138 -7 215 3 90 -2 179 -12 250 -17 121 -76 312
-94 307 -7 -1 -12 9 -12 23 0 32 -32 93 -47 88 -6 -2 -16 10 -22 28 -15 44
-13 50 5 16 9 -16 18 -26 22 -23 3 4 0 12 -6 18 -7 7 -12 21 -12 32 0 10 -3
16 -6 13 -4 -4 -19 19 -35 50 -31 62 -56 93 -44 56 5 -17 3 -22 -8 -17 -9 3
-16 -3 -20 -15 -6 -23 -27 -29 -27 -8 0 27 22 87 31 87 6 0 -2 16 -17 36 -20
26 -29 32 -36 22 -6 -9 -8 -7 -6 7 1 11 -5 31 -15 45 -9 13 -17 20 -17 16z
m-155 -604 c24 5 25 3 25 -38 l0 -44 40 0 c36 0 40 -2 40 -25 0 -22 4 -25 40
-25 29 0 40 -4 40 -15 0 -12 -17 -15 -95 -15 -88 0 -96 2 -120 25 -14 14 -25
32 -25 40 0 8 -7 15 -15 15 -11 0 -15 11 -15 39 0 23 -5 41 -12 44 -7 2 -6 3
3 2 9 -1 23 1 30 6 8 4 19 3 26 -3 7 -6 24 -8 38 -6z"/>
<path d="M6218 3511 c-27 -4 -52 -11 -58 -17 -6 -6 -13 -60 -17 -121 -7 -126
-1 -136 62 -102 42 23 67 19 84 -15 10 -18 10 -28 1 -45 -17 -33 -54 -43 -107
-29 -41 10 -47 9 -60 -7 -13 -18 -9 -51 7 -69 12 -12 93 -20 134 -12 22 4 52
22 77 46 41 39 41 39 37 101 -4 54 -8 66 -36 90 -19 17 -49 32 -73 35 -36 6
-40 9 -37 33 3 23 9 27 56 34 59 10 80 33 62 67 -11 21 -39 24 -132 11z"/>
<path d="M5931 3420 c-89 -99 -101 -131 -56 -152 22 -10 29 -8 57 18 l31 29
-6 -25 c-3 -14 -9 -60 -13 -102 -7 -86 1 -108 43 -108 29 0 29 -1 48 140 8 63
20 148 26 188 11 79 4 102 -32 102 -10 0 -53 -39 -98 -90z"/>
<path d="M6928 3469 c-9 -5 -19 -29 -23 -56 -12 -89 -15 -93 -47 -93 l-30 0 7
70 c7 69 7 69 -20 76 -47 12 -55 -9 -77 -191 -11 -92 -17 -173 -14 -181 3 -8
19 -14 35 -14 33 0 40 12 50 95 6 48 7 50 40 53 l33 3 -7 -51 c-8 -55 4 -80
35 -80 30 0 39 24 57 151 24 172 23 210 -3 219 -11 4 -27 4 -36 -1z"/>
<path d="M7552 3462 c-13 -9 -63 -307 -55 -329 8 -20 41 -24 133 -16 84 8 85
8 88 37 5 37 -10 46 -76 46 -50 0 -53 2 -50 23 2 18 11 23 43 27 32 4 41 9 43
28 5 30 -14 52 -44 52 -19 0 -24 5 -24 25 0 23 3 25 49 25 52 0 75 16 69 47
-2 10 -14 23 -28 30 -28 14 -128 17 -148 5z"/>
<path d="M7843 3463 c-36 -7 -43 -25 -60 -151 -18 -135 -12 -170 33 -191 94
-42 212 29 200 122 -2 20 0 37 5 37 17 0 49 44 49 67 0 85 -107 139 -227 116z"/>
<path d="M9557 3457 c-3 -8 -9 -36 -13 -62 -8 -57 -47 -103 -71 -83 -10 8 -13
30 -11 77 l3 66 -35 0 c-32 0 -36 -4 -48 -40 -8 -22 -12 -62 -9 -89 4 -40 11
-55 36 -78 19 -17 43 -28 61 -28 37 0 37 -5 0 -40 -25 -23 -29 -32 -21 -52 24
-67 126 1 157 107 10 35 18 96 18 145 l1 85 -31 3 c-20 2 -33 -2 -37 -11z"/>
<path d="M6460 3441 c-18 -5 -26 -15 -28 -35 -4 -32 10 -46 48 -46 l25 0 0
-122 c0 -121 0 -123 23 -126 37 -6 52 15 52 73 0 29 3 80 6 114 l7 61 33 0
c38 0 56 23 44 56 -6 16 -20 23 -56 28 -57 7 -120 6 -154 -3z"/>
<path d="M7328 3436 c-37 -6 -75 -18 -83 -27 -12 -11 -22 -61 -35 -165 -20
-165 -17 -187 28 -182 27 3 31 12 47 109 5 35 7 36 63 45 57 9 57 9 57 44 l0
35 -53 3 c-43 3 -53 6 -48 18 3 9 6 19 6 24 0 5 21 12 48 16 69 10 92 21 92
43 0 22 -26 52 -43 50 -7 -1 -42 -7 -79 -13z"/>
<path d="M8885 3418 c-44 -38 -78 -103 -105 -199 -28 -104 -27 -137 7 -150 33
-12 44 -2 58 54 9 38 13 42 43 45 31 3 32 2 32 -35 0 -22 5 -44 12 -51 18 -18
65 -15 72 4 6 17 -1 243 -10 301 -10 68 -54 80 -109 31z"/>
<path d="M8207 3428 c2 -5 0 -8 -6 -8 -20 0 -60 -54 -70 -96 -6 -23 -14 -94
-17 -157 l-7 -114 28 -7 c40 -10 55 9 63 85 l7 64 61 -57 c61 -59 92 -70 114
-43 17 21 5 47 -44 95 l-44 43 29 40 c36 49 37 86 4 125 -20 24 -34 31 -74 34
-27 1 -47 0 -44 -4z"/>
<path d="M8463 3423 c-29 -6 -37 -37 -30 -122 6 -76 37 -155 66 -170 31 -17
91 -13 127 9 46 29 76 97 82 184 5 81 -8 103 -53 92 -23 -6 -25 -11 -25 -61 0
-30 -5 -67 -12 -82 -13 -31 -47 -73 -59 -73 -20 0 -39 63 -39 129 0 50 -4 74
-16 85 -8 9 -16 15 -17 15 -1 -1 -12 -4 -24 -6z"/>
<path d="M9132 3410 c-45 -28 -60 -68 -75 -195 -15 -141 -13 -163 20 -171 36
-9 51 11 61 86 l9 65 55 -57 c58 -60 93 -73 118 -43 16 20 6 45 -40 96 -45 50
-46 52 -26 69 26 21 39 78 26 110 -24 59 -88 76 -148 40z"/>
<path d="M2613 3385 c-19 -21 -16 -25 22 -25 19 0 35 -5 35 -11 0 -6 -8 -8
-19 -4 -20 6 -43 -11 -61 -46 -13 -23 -35 -26 -26 -3 3 8 3 26 0 40 -5 20 -12
24 -45 24 -39 0 -39 0 -39 -40 0 -40 0 -40 -39 -40 -22 0 -41 3 -44 8 -2 4 -2
1 0 -6 1 -8 3 -47 3 -88 l0 -74 98 0 c66 0 106 -5 126 -15 25 -13 28 -13 22 1
-4 11 -2 15 6 12 17 -7 53 28 39 37 -6 3 -11 2 -11 -3 0 -5 -11 -14 -25 -20
-21 -10 -25 -9 -24 6 0 9 4 26 8 36 7 19 8 18 14 -4 5 -20 8 -21 21 -10 21 16
20 27 -1 33 -14 4 -12 5 5 6 12 0 22 5 22 9 0 10 -60 9 -77 -1 -6 -4 -14 -3
-18 3 -13 20 -23 9 -22 -25 1 -38 -6 -51 -23 -40 -14 9 -5 66 12 76 9 6 9 11
0 22 -7 7 -9 17 -5 20 11 12 21 7 26 -13 6 -25 68 -28 87 -5 18 22 4 31 -18
12 -16 -15 -21 -15 -39 -2 -14 10 -19 22 -16 40 3 14 8 25 12 26 3 1 21 2 39
4 38 3 66 24 43 32 -7 3 -21 14 -29 24 -19 22 -42 24 -59 4z"/>
<path d="M5145 2441 c-28 -6 -31 -11 -42 -71 -27 -145 -15 -192 54 -206 63
-13 123 37 123 102 0 13 9 33 20 44 39 39 16 100 -46 126 -35 15 -59 16 -109
5z"/>
<path d="M6208 2427 c-34 -27 -48 -64 -48 -123 0 -115 72 -166 158 -114 45 28
65 79 60 154 -4 49 -9 63 -32 83 -37 31 -101 32 -138 0z"/>
<path d="M5610 2433 c0 -5 -9 -59 -19 -122 -11 -63 -17 -121 -14 -128 4 -9 28
-13 84 -13 67 0 80 3 89 19 15 28 -12 51 -61 51 -28 0 -39 4 -39 15 0 10 10
15 30 15 52 0 52 61 1 68 -14 2 -21 9 -19 20 2 12 15 18 45 20 42 3 58 19 47
47 -5 11 -23 15 -75 15 -38 0 -69 -3 -69 -7z"/>
<path d="M4645 2414 c-9 -9 -14 -23 -11 -31 3 -8 6 -17 6 -19 0 -2 12 -4 26
-4 l27 0 -5 -89 c-6 -102 -1 -116 36 -107 22 5 26 12 26 40 0 18 3 61 6 95 7
58 8 61 34 61 16 0 30 7 34 16 8 21 8 20 -10 38 -22 23 -146 22 -169 0z"/>
<path d="M4945 2394 c-38 -39 -78 -149 -79 -219 -1 -36 2 -40 25 -43 24 -3 28
2 36 35 7 31 13 38 33 38 21 0 26 -6 28 -32 3 -34 35 -54 54 -35 16 16 6 255
-11 275 -21 26 -48 20 -86 -19z"/>
<path d="M6065 2407 c-2 -7 -8 -37 -13 -67 l-8 -55 -17 38 c-12 29 -22 37 -41
37 -22 0 -55 -34 -47 -50 1 -3 -5 -42 -15 -87 -19 -92 -15 -113 20 -113 20 0
27 6 32 28 3 15 9 38 13 52 8 24 8 24 21 -12 16 -44 47 -59 66 -33 22 30 60
232 47 251 -12 16 -54 24 -58 11z"/>
<path d="M5376 2402 c-3 -5 -10 -55 -16 -113 -13 -129 -12 -131 90 -113 78 13
94 22 88 50 -3 16 -13 19 -61 18 -57 -1 -58 -1 -53 25 5 26 9 90 7 124 -1 18
-45 25 -55 9z"/>
<path d="M3816 2372 c-3 -6 0 -13 6 -15 10 -4 10 -8 -2 -16 -8 -5 -18 -7 -22
-5 -12 8 -78 -69 -73 -84 3 -7 1 -11 -4 -8 -5 3 -32 -18 -61 -46 -28 -29 -47
-54 -41 -56 6 -2 11 -11 11 -19 0 -14 -2 -14 -18 0 -17 16 -20 15 -40 -6 -12
-13 -19 -27 -15 -30 3 -4 -3 -7 -13 -7 -22 0 -88 -62 -78 -73 4 -4 -2 -7 -13
-7 -17 0 -20 -5 -16 -22 5 -19 3 -21 -7 -11 -10 10 -19 9 -42 -5 -28 -17 -37
-32 -17 -32 6 0 3 -7 -5 -16 -9 -8 -16 -20 -16 -25 0 -5 -7 -9 -15 -9 -8 0
-15 5 -15 11 0 5 -5 7 -12 3 -7 -5 -2 -15 18 -31 19 -15 24 -23 13 -23 -8 0
-24 8 -35 19 -20 18 -21 18 -86 -44 -51 -50 -65 -70 -66 -94 -1 -33 14 -42 25
-15 3 9 0 20 -7 24 -7 4 -9 13 -6 19 11 17 26 13 27 -6 0 -13 3 -10 10 7 11
27 58 80 71 80 5 0 2 -13 -7 -30 -9 -16 -21 -30 -28 -30 -8 0 -7 -3 2 -9 29
-19 20 -41 -24 -61 -24 -11 -49 -20 -54 -20 -16 0 -13 -15 9 -43 11 -14 20
-28 20 -31 0 -3 -9 -6 -20 -6 -11 0 -20 5 -20 11 0 6 -7 18 -16 26 -13 13 -13
17 -2 24 9 6 6 9 -10 9 -13 0 -21 4 -18 9 3 5 14 8 24 6 9 -1 11 0 5 2 -7 3
-13 10 -13 16 -1 14 -50 -43 -50 -57 0 -6 5 -5 12 2 16 16 28 15 28 -3 0 -8
-6 -15 -14 -15 -22 0 -28 -17 -15 -42 9 -16 14 -19 17 -9 2 7 -2 17 -9 22 -11
7 -10 9 4 9 12 0 17 -8 17 -27 0 -16 3 -38 6 -49 5 -18 0 -24 -33 -34 -21 -7
-42 -19 -46 -26 -14 -23 -35 -16 -39 14 -2 16 -8 26 -16 24 -8 -1 -11 2 -7 8
4 6 16 8 26 5 18 -6 19 -5 7 14 l-12 20 -21 -22 c-11 -12 -18 -30 -16 -41 2
-16 0 -18 -11 -8 -12 9 -21 6 -47 -17 -26 -24 -29 -29 -12 -24 12 3 21 9 21
14 0 14 26 10 40 -6 14 -17 86 -21 92 -5 2 6 8 6 18 0 13 -8 12 -10 -3 -10
-15 0 -17 -7 -15 -40 1 -32 6 -40 21 -40 10 0 15 -4 12 -10 -3 -5 3 -10 15
-10 12 0 18 5 15 10 -7 11 53 14 79 4 24 -9 20 -33 -4 -27 -11 3 -20 9 -20 14
0 5 -10 9 -22 8 -15 0 -18 -2 -8 -6 31 -12 50 -35 39 -49 -6 -7 -8 -18 -4 -24
4 -6 -1 -20 -10 -30 -11 -12 -13 -20 -5 -25 13 -8 41 13 39 29 -3 29 2 37 20
31 25 -8 71 4 71 19 0 14 54 66 69 66 6 0 11 7 11 15 0 8 3 15 8 15 12 1 92
77 92 89 0 5 13 17 29 27 21 12 27 23 24 38 -3 13 -2 17 4 9 10 -14 63 31 108
92 17 22 37 45 45 52 13 10 13 12 -2 18 -10 4 -18 13 -18 21 0 14 10 17 47 14
22 -1 40 13 83 70 14 18 33 41 42 51 10 10 29 38 44 61 15 24 33 47 40 51 8 4
14 13 14 18 0 6 11 23 25 37 14 15 25 30 25 35 0 4 12 21 27 37 47 53 98 157
57 116 -20 -20 -34 -20 -34 -1 0 11 -12 15 -50 15 -47 0 -50 2 -50 25 0 23 -4
25 -40 25 -25 0 -40 5 -41 13 -1 6 -2 24 -3 39 -2 31 -11 44 -20 30z"/>
<path d="M8037 2239 c-50 -39 -57 -163 -11 -196 48 -35 126 0 144 65 17 62 12
91 -19 123 -35 35 -77 38 -114 8z"/>
<path d="M7482 2234 c-16 -11 -22 -25 -22 -54 0 -32 6 -43 30 -60 45 -32 40
-53 -10 -45 -48 8 -64 -13 -35 -45 42 -46 135 -8 135 54 0 32 -13 51 -55 81
-20 15 -20 15 4 34 46 36 2 70 -47 35z"/>
<path d="M8770 2230 c-12 -12 -20 -33 -20 -54 0 -27 7 -39 35 -60 40 -31 37
-51 -6 -42 -57 11 -79 -19 -37 -48 54 -38 128 -3 128 60 0 34 -24 74 -45 74
-24 0 -28 21 -6 36 12 8 21 24 21 35 0 26 -43 26 -70 -1z"/>
<path d="M7707 2233 c-4 -3 -7 -15 -7 -25 0 -13 7 -18 28 -18 l27 0 0 -82 c0
-77 2 -83 21 -86 18 -3 22 4 28 44 3 26 6 62 6 80 0 26 5 33 21 36 31 4 49 35
29 48 -17 11 -143 14 -153 3z"/>
<path d="M8907 2234 c-4 -4 -7 -16 -7 -26 0 -13 7 -18 26 -18 25 0 25 -1 24
-72 -2 -103 -3 -100 23 -96 17 2 23 10 25 38 7 98 13 119 35 122 16 2 22 10
22 28 0 24 -3 25 -70 28 -39 1 -74 0 -78 -4z"/>
<path d="M9156 2208 c-34 -46 -53 -94 -62 -156 -6 -51 -6 -52 20 -52 22 0 28
6 33 31 8 40 46 38 51 -3 3 -22 9 -28 28 -28 24 0 24 1 23 93 -1 119 -8 141
-41 145 -20 2 -32 -5 -52 -30z"/>
<path d="M8214 2216 c-13 -33 1 -144 20 -165 23 -25 72 -28 103 -6 28 19 55
93 51 136 -2 29 -7 34 -28 34 -22 0 -26 -5 -30 -47 -3 -26 -14 -56 -25 -68
-17 -19 -20 -19 -28 -4 -6 10 -13 43 -16 73 -5 42 -10 57 -24 59 -9 2 -20 -4
-23 -12z"/>
<path d="M8455 2204 c-23 -25 -32 -65 -37 -169 -2 -47 -1 -50 22 -50 21 0 26
6 31 38 3 20 8 39 11 42 2 2 21 -11 41 -30 41 -39 49 -41 67 -20 13 16 10 21
-32 69 -22 24 -22 30 -3 46 21 17 19 63 -3 83 -27 25 -69 21 -97 -9z"/>
<path d="M9302 2218 c-6 -8 -12 -54 -14 -103 l-3 -90 30 2 c63 3 114 16 120
31 9 24 -12 36 -56 33 l-40 -3 3 68 c2 56 0 69 -13 72 -9 1 -21 -3 -27 -10z"/>
<path d="M9476 2178 c-4 -29 -9 -74 -12 -99 -4 -29 -1 -49 6 -54 18 -11 148
16 155 33 10 27 -14 41 -60 35 l-43 -5 7 32 c3 18 5 50 3 71 -4 33 -8 39 -27
39 -20 0 -24 -6 -29 -52z"/>
<path d="M10197 2200 c-19 -22 -27 -47 -32 -92 -10 -92 -5 -122 22 -126 18 -3
23 3 28 35 4 21 8 42 9 47 1 5 19 -7 40 -28 64 -62 107 -24 46 39 -30 31 -31
35 -16 50 21 22 20 68 -2 88 -29 26 -67 21 -95 -13z"/>
<path d="M7131 2207 c-9 -11 -6 -30 10 -83 46 -149 73 -162 121 -57 16 37 32
82 35 100 5 30 3 33 -20 33 -21 0 -28 -8 -43 -50 -10 -27 -20 -47 -23 -44 -3
3 -13 29 -21 57 -16 53 -37 69 -59 44z"/>
<path d="M1920 1960 c0 -31 -4 -40 -17 -40 -17 -1 -17 -1 0 -14 9 -7 17 -25
17 -40 0 -26 0 -26 80 -26 l80 0 0 40 0 40 -40 0 -40 0 0 40 0 40 -40 0 -40 0
0 -40z"/>
<path d="M5609 1878 c-33 -27 -65 -67 -88 -108 -33 -59 -36 -72 -36 -142 0
-82 12 -110 67 -151 66 -49 188 -25 243 48 33 42 44 124 23 164 -21 39 -81 81
-129 89 l-44 8 52 34 c55 36 64 58 37 84 -28 28 -69 19 -125 -26z m114 -220
c9 -11 17 -28 17 -38 0 -27 -56 -70 -93 -70 -34 0 -77 33 -77 60 0 27 29 59
63 69 40 11 67 5 90 -21z"/>
<path d="M5216 1869 c-58 -46 -76 -130 -31 -151 30 -14 72 10 77 44 3 26 38
38 38 14 0 -8 -25 -50 -55 -93 -30 -43 -66 -94 -80 -114 -35 -49 -43 -100 -19
-123 15 -16 26 -17 78 -10 34 4 89 8 124 9 64 0 82 10 82 47 0 33 -29 48 -91
48 -32 0 -59 3 -59 6 0 4 15 27 34 53 65 90 86 135 86 185 0 39 -5 53 -29 77
-25 24 -38 29 -79 29 -35 0 -57 -6 -76 -21z"/>
<path d="M7850 1780 c-40 -43 -38 -72 6 -108 42 -35 38 -56 -10 -47 -46 9 -66
-15 -37 -44 43 -43 141 -10 141 48 0 22 -20 71 -29 71 -3 0 -15 7 -26 15 -19
15 -19 15 3 31 28 19 28 40 2 54 -18 10 -25 6 -50 -20z"/>
<path d="M8009 1779 c-26 -28 -29 -38 -29 -94 0 -58 2 -65 31 -89 37 -32 70
-27 114 15 27 27 30 35 30 95 0 57 -3 68 -24 85 -37 30 -87 25 -122 -12z"/>
<path d="M8775 1803 c-29 -8 -33 -18 -40 -110 -6 -72 -5 -86 10 -103 18 -20
51 -25 91 -14 25 7 58 59 51 83 -2 10 4 23 14 30 26 16 24 63 -4 89 -23 22
-86 35 -122 25z"/>
<path d="M8471 1738 c-20 -118 -23 -155 -14 -161 6 -4 40 -4 77 0 61 5 66 8
66 29 0 22 -4 24 -45 24 -33 0 -45 4 -45 15 0 10 10 15 30 15 25 0 30 4 30 24
0 16 -7 27 -20 31 -34 11 -24 35 15 35 31 0 35 3 35 25 0 24 -3 25 -59 25
l-59 0 -11 -62z"/>
<path d="M8356 1773 c-3 -3 -28 -5 -54 -4 -73 2 -97 -33 -108 -159 -6 -60 -4
-70 10 -76 26 -10 36 7 46 72 4 32 12 68 16 79 7 17 9 15 14 -15 4 -26 10 -36
27 -38 16 -2 24 4 33 32 20 62 34 43 27 -39 -7 -78 -2 -91 33 -80 18 6 20 15
20 99 0 76 -3 96 -17 108 -26 22 -39 28 -47 21z"/>
<path d="M8972 1768 c-6 -8 -12 -54 -14 -103 l-3 -90 30 2 c62 3 114 16 119
30 10 25 -3 33 -50 33 l-45 0 3 67 c2 55 0 68 -13 71 -9 1 -21 -3 -27 -10z"/>
<path d="M330 1671 c0 -4 14 -22 30 -40 25 -26 38 -31 75 -31 33 0 45 -4 45
-15 0 -11 11 -15 39 -15 46 0 73 9 65 21 -3 5 -16 9 -30 9 -21 0 -24 4 -24 40
l0 40 -79 0 c-54 0 -81 -4 -85 -12 -5 -10 -7 -10 -12 0 -6 14 -24 17 -24 3z"/>
<path d="M763 1653 c-24 -2 -43 -8 -43 -14 0 -5 -18 -9 -40 -9 -30 0 -40 -4
-40 -16 0 -9 -8 -23 -17 -30 -17 -13 -17 -13 0 -14 9 0 17 -6 17 -14 0 -12 -7
-13 -32 -5 -41 11 -48 11 -48 0 0 -5 10 -11 23 -13 12 -2 21 -8 20 -15 -2 -7
17 -9 57 -6 59 5 60 5 60 -19 0 -23 5 -26 56 -31 62 -6 76 -13 54 -27 -8 -6
-10 -10 -5 -11 6 0 1 -4 -10 -8 -16 -7 -11 -9 22 -12 23 -3 39 -1 37 3 -3 5
-13 8 -22 9 -29 2 30 17 71 18 26 1 37 6 37 16 0 11 -11 15 -40 15 -33 0 -40
3 -40 20 0 16 -7 20 -31 20 -20 0 -28 4 -23 12 5 7 2 9 -8 5 -13 -4 -16 1 -15
29 1 19 5 34 10 34 4 0 6 4 3 9 -3 5 1 14 9 21 12 10 13 16 4 26 -6 8 -14 13
-18 12 -3 -1 -25 -3 -48 -5z"/>
<path d="M370 1236 c0 -30 -5 -46 -15 -50 -8 -3 -15 -12 -15 -21 0 -8 -3 -15
-7 -15 -5 0 -8 -15 -9 -33 -1 -17 1 -26 3 -19 3 6 9 10 14 6 14 -9 10 -24 -7
-24 -8 0 -13 -4 -10 -9 11 -16 -5 -40 -22 -34 -11 3 -13 2 -6 -4 7 -4 13 -17
15 -27 2 -11 11 -22 19 -24 13 -5 13 -3 1 11 -12 15 -10 16 17 6 24 -8 37 -7
61 6 27 13 31 21 31 55 0 30 -6 43 -26 59 -15 12 -22 21 -16 21 13 0 23 26 16
45 -4 8 -12 15 -20 15 -10 0 -8 6 6 20 29 29 26 60 -5 60 -23 0 -25 -4 -25
-44z"/>
<path d="M523 1208 c5 -15 1 -18 -23 -18 -16 0 -31 -4 -35 -10 -3 -5 -12 -7
-20 -3 -22 8 -18 -10 6 -27 11 -8 28 -20 36 -25 11 -8 13 -21 8 -49 -5 -26
-10 -34 -16 -24 -7 10 -9 9 -9 -4 0 -10 5 -18 11 -18 6 0 8 -7 5 -16 -3 -8 -2
-13 2 -11 4 3 16 1 27 -4 19 -7 19 -8 -2 -8 -13 -1 -23 -6 -23 -12 0 -5 -4 -7
-10 -4 -5 3 -10 15 -10 26 0 10 -5 19 -11 19 -5 0 -7 -5 -4 -11 4 -5 0 -18
-10 -29 -15 -17 -15 -18 13 -15 16 1 34 5 40 8 5 4 13 1 15 -5 4 -10 8 -10 15
1 8 11 11 11 16 0 3 -8 4 -2 1 14 -3 15 0 37 6 48 9 17 8 20 -2 14 -9 -6 -10
-2 -6 16 4 13 7 29 7 34 0 6 4 4 9 -3 6 -10 10 -9 14 7 3 12 1 19 -3 16 -5 -3
-11 -1 -14 4 -4 5 3 12 14 16 11 3 20 15 20 25 0 10 -9 22 -20 25 -12 4 -17
11 -14 18 4 7 4 9 -1 5 -4 -4 -15 -2 -23 5 -13 10 -15 9 -9 -5z"/>
<path d="M3011 1185 c-16 -14 -33 -34 -36 -45 -4 -12 -12 -17 -21 -13 -11 4
-12 8 -4 13 16 10 1 40 -26 50 -21 8 -60 6 -91 -5 -15 -5 -17 -41 -4 -49 5 -3
12 -31 16 -62 4 -32 9 -64 12 -73 4 -11 3 -13 -5 -6 -6 6 -12 24 -15 40 -3 24
-4 22 -6 -12 0 -25 4 -43 12 -46 7 -2 6 -3 -3 -3 -11 1 -17 20 -23 71 -4 39
-8 83 -8 100 0 16 -5 33 -12 37 -8 5 -6 8 7 8 11 0 17 3 14 6 -3 3 -23 1 -44
-5 -49 -14 -78 -55 -100 -142 -13 -55 -21 -68 -43 -76 l-26 -11 29 2 c24 1 31
-4 36 -23 3 -16 15 -27 33 -32 32 -9 35 1 7 19 -11 7 -20 19 -20 28 0 8 -4 12
-10 9 -5 -3 -10 0 -10 8 0 10 7 13 20 10 12 -3 22 1 26 11 8 20 24 11 24 -15
0 -10 5 -19 11 -19 8 0 8 -5 -1 -15 -10 -13 -9 -15 9 -15 26 0 27 -9 4 -26
-14 -9 -15 -16 -6 -24 8 -9 13 -7 18 9 3 12 11 21 16 21 19 0 8 37 -16 50 -14
7 -25 20 -25 28 0 11 6 8 20 -8 11 -13 20 -18 20 -11 0 7 5 9 10 6 6 -3 10
-15 10 -26 0 -10 7 -19 15 -19 8 0 15 6 15 14 0 15 27 29 39 21 4 -2 8 2 8 10
0 8 -5 15 -11 16 -6 0 -2 4 10 9 21 8 32 45 35 115 1 22 4 17 11 -20 5 -27 9
-58 9 -68 0 -17 2 -17 19 3 l19 21 11 -20 c8 -16 21 -21 50 -21 54 0 80 34 80
106 0 45 -4 55 -22 66 -13 7 -31 11 -42 9 -11 -1 -16 2 -12 8 11 18 -1 13 -33
-14z"/>
<path d="M706 1165 c-5 -26 -12 -35 -26 -35 -11 0 -20 5 -20 11 0 6 7 9 15 5
8 -3 15 -1 15 3 0 5 3 18 6 28 6 17 6 17 -8 -1 -14 -18 -16 -18 -39 -3 -33 23
-36 22 -42 -19 -9 -55 11 -131 37 -138 38 -10 62 -6 84 14 l22 21 1 -23 c0
-21 1 -21 8 -4 7 18 8 18 14 3 9 -24 52 -21 96 5 20 12 33 18 29 14 -11 -13
13 -66 30 -66 15 1 15 2 -1 11 -15 9 -17 22 -15 79 3 80 -11 103 -75 122 -36
11 -40 10 -58 -13 -12 -16 -21 -20 -26 -13 -5 6 -15 14 -23 18 -8 3 -3 4 13 2
15 -2 27 1 27 5 0 5 -13 9 -29 9 -25 0 -30 -5 -35 -35z"/>
<path d="M1969 1181 c-23 -19 -49 -112 -36 -128 34 -42 50 -53 75 -53 33 1 57
18 66 48 4 12 11 20 15 17 5 -2 11 16 14 41 2 24 12 53 21 63 9 10 13 20 10
24 -9 9 -34 -19 -35 -40 0 -14 -2 -15 -6 -3 -11 28 -38 46 -72 46 -18 0 -42
-7 -52 -15z"/>
<path d="M2158 1193 c6 -2 12 -9 12 -14 0 -6 -4 -7 -10 -4 -18 11 -50 -58 -50
-109 0 -46 -1 -48 -15 -30 -13 16 -14 16 -9 2 4 -11 1 -18 -6 -18 -7 0 -9 -8
-4 -22 6 -19 5 -21 -8 -11 -18 15 -70 3 -76 -18 -3 -11 -2 -11 7 1 9 12 11 12
11 1 0 -11 5 -10 20 4 18 17 20 17 20 1 0 -14 4 -15 20 -6 12 6 28 9 38 6 37
-11 87 -16 73 -7 -7 5 -15 25 -16 45 l-3 36 30 -30 c31 -32 68 -37 78 -12 4
10 11 8 28 -6 21 -18 25 -19 52 -5 16 8 35 11 42 7 7 -4 5 1 -4 11 -16 17 -16
20 7 47 25 29 34 68 16 68 -5 0 -13 9 -16 20 -9 27 -57 51 -98 48 l-33 -3 7
-45 c3 -25 5 -49 4 -55 -2 -5 -6 -23 -10 -38 -5 -24 -8 -27 -20 -17 -18 15
-20 34 -3 24 7 -4 8 -3 4 4 -4 6 -14 8 -24 5 -16 -6 -16 -5 1 14 9 11 17 26
18 34 0 8 4 6 9 -6 8 -18 9 -17 9 7 1 20 -3 26 -14 22 -9 -4 -15 0 -15 10 0 8
-11 18 -25 22 -14 3 -22 10 -19 15 3 5 -5 9 -18 8 -13 0 -17 -3 -10 -6z"/>
<path d="M2607 1173 c-4 -3 -7 -15 -7 -25 0 -21 -11 -23 -27 -7 -18 18 -41 3
-52 -33 -8 -30 -9 -30 -11 -8 -1 23 -2 23 -10 5 -12 -29 -12 -47 1 -39 9 5 10
-6 5 -38 -7 -50 3 -65 42 -62 20 1 22 -2 17 -26 -5 -23 -2 -30 16 -35 22 -7
22 -8 4 -21 -10 -7 -22 -11 -28 -7 -6 3 -7 1 -3 -5 4 -7 15 -8 30 -2 12 4 29
5 36 0 7 -4 20 -6 27 -3 12 5 12 7 1 15 -9 6 -6 7 10 3 26 -7 28 0 6 22 -12
13 -18 13 -24 4 -5 -9 -9 -8 -15 6 -5 10 -9 22 -9 27 -1 5 -10 14 -21 20 -11
6 -23 16 -27 21 -5 6 -8 4 -8 -4 0 -8 -3 -12 -6 -8 -3 3 -3 15 1 27 l7 22 15
-21 c18 -27 43 -27 50 -1 3 11 12 20 19 20 8 0 14 8 14 18 1 9 7 34 14 55 12
32 12 37 -1 37 -8 0 -11 -4 -8 -10 3 -5 -1 -22 -9 -37 -10 -19 -15 -22 -16
-11 0 9 5 20 11 23 6 4 8 13 5 21 -3 7 1 20 9 28 8 8 15 19 15 25 0 15 -17 14
-23 -1 -4 -10 -6 -10 -6 0 -1 13 -33 17 -44 5z"/>
<path d="M3192 1170 c-27 -11 -37 -36 -47 -117 -8 -70 -3 -83 24 -76 14 4 21
15 23 42 l3 36 29 -32 c16 -18 35 -33 43 -33 26 0 26 31 0 58 -23 24 -24 29
-11 46 20 28 17 52 -8 70 -25 18 -25 18 -56 6z"/>
<path d="M5058 1055 c-3 -3 23 -82 57 -175 l62 -169 -36 -53 c-20 -29 -92
-133 -160 -231 -68 -98 -121 -180 -120 -182 12 -12 63 12 82 39 12 17 29 38
37 46 8 8 37 44 65 80 27 36 55 72 62 80 6 8 40 50 74 93 l62 77 54 0 c50 0
53 -1 48 -22 -13 -58 -34 -212 -29 -219 5 -9 44 -3 55 8 4 5 16 54 28 111 11
56 25 111 31 122 5 10 10 46 10 79 0 58 13 80 26 46 9 -23 24 -18 24 9 0 17
-7 26 -24 30 -22 5 -25 13 -32 83 -4 43 -7 90 -8 105 -1 25 -5 28 -38 28 l-37
0 4 -47 c3 -27 7 -78 9 -115 l5 -68 -67 0 -68 0 -37 95 c-20 52 -39 105 -43
119 -6 24 -29 36 -70 36 -11 0 -23 -2 -26 -5z"/>
<path d="M5783 1053 c-22 -4 -33 -23 -14 -23 8 0 -7 -46 -55 -178 -10 -25 -20
-39 -27 -35 -6 3 -35 5 -65 4 l-54 -3 7 111 8 111 -44 0 c-38 -1 -42 -2 -27
-14 16 -12 16 -25 4 -182 -11 -154 -11 -181 6 -294 10 -69 25 -172 33 -230 8
-58 17 -127 21 -153 7 -50 26 -69 47 -48 8 8 7 31 -1 88 -21 131 -62 431 -62
447 0 13 13 16 69 16 l69 0 34 -42 c50 -65 251 -302 263 -310 18 -14 68 -9 62
5 -3 7 -67 101 -144 208 -77 106 -143 200 -147 206 -7 13 1 45 56 216 15 49
28 93 28 98 0 9 -26 10 -67 2z"/>
<path d="M8616 988 c-2 -7 -7 -25 -10 -40 -9 -42 -36 -36 -36 7 0 28 -4 35
-19 35 -21 0 -31 -19 -31 -56 0 -36 18 -64 40 -64 23 0 24 -4 8 -30 -18 -28 2
-46 32 -30 28 15 47 62 51 130 3 46 1 55 -14 58 -9 2 -19 -2 -21 -10z"/>
<path d="M7806 959 c-31 -36 -63 -136 -50 -157 13 -21 28 -17 41 9 13 25 37
32 39 12 1 -7 2 -17 3 -23 0 -5 10 -10 21 -10 18 0 20 7 20 81 0 120 -24 148
-74 88z"/>
<path d="M8944 982 c-35 -23 -46 -111 -18 -150 15 -22 66 -30 90 -14 42 29 57
103 28 147 -12 19 -25 25 -53 25 -20 0 -41 -4 -47 -8z"/>
<path d="M9250 968 c-15 -16 -20 -35 -20 -73 0 -61 19 -85 68 -85 71 0 109
111 56 165 -23 23 -80 19 -104 -7z"/>
<path d="M9567 909 c-4 -45 -4 -86 -1 -90 17 -28 102 13 120 57 24 58 -16 114
-82 114 l-31 0 -6 -81z"/>
<path d="M10021 966 c-25 -27 -61 -115 -61 -150 0 -44 37 -40 53 6 8 23 37 12
37 -14 0 -13 6 -18 18 -16 14 3 18 16 20 74 5 113 -20 150 -67 100z"/>
<path d="M10286 971 c-26 -28 -31 -91 -12 -129 14 -28 22 -32 55 -32 49 0 72
25 78 84 8 64 -14 96 -66 96 -25 0 -44 -7 -55 -19z"/>
<path d="M9443 968 c-13 -6 -27 -26 -33 -47 -11 -39 -14 -134 -4 -144 10 -10
34 5 34 22 0 9 5 23 10 31 8 13 14 11 36 -13 14 -15 31 -26 37 -24 21 7 19 36
-3 59 -12 13 -18 29 -14 38 15 35 15 58 -1 73 -19 19 -31 20 -62 5z"/>
<path d="M9897 974 c-4 -4 -7 -23 -8 -43 0 -36 0 -36 -16 -13 -31 44 -49 29
-68 -54 -11 -52 -14 -79 -7 -86 18 -18 42 0 43 29 l0 28 16 -22 c26 -39 50
-29 62 25 19 76 19 136 1 139 -9 2 -19 1 -23 -3z"/>
<path d="M10472 962 c-25 -20 -41 -73 -42 -140 0 -39 2 -43 23 -40 17 2 23 11
25 37 l3 34 35 -34 c31 -30 36 -32 50 -18 14 14 13 19 -9 45 -22 26 -24 32
-12 54 14 27 10 49 -13 68 -21 16 -33 15 -60 -6z"/>
<path d="M7330 951 c0 -6 -28 -24 -61 -41 -68 -34 -152 -87 -186 -116 -12 -11
-36 -27 -54 -37 -17 -10 -30 -20 -27 -22 8 -8 78 24 78 36 0 19 45 5 48 -16 2
-16 1 -17 -7 -5 -9 13 -11 12 -16 -2 -4 -9 -14 -14 -25 -11 -10 3 -21 0 -24
-6 -4 -6 0 -11 10 -11 15 0 14 -3 -4 -19 -29 -25 -28 -33 3 -19 14 6 25 15 25
20 0 4 6 8 14 8 8 0 21 6 28 13 7 8 42 29 77 48 36 19 75 43 88 55 14 11 55
36 94 55 38 19 69 37 69 42 0 4 -13 7 -29 7 -16 0 -34 7 -41 15 -14 16 -60 21
-60 6z"/>
<path d="M1059 864 c-6 -8 -15 -11 -20 -8 -5 3 -9 0 -9 -5 0 -6 5 -11 10 -11
6 0 10 -9 10 -20 0 -11 -4 -20 -9 -20 -8 0 -24 37 -22 53 3 22 -25 -3 -47 -42
-9 -16 -10 -21 -2 -16 9 6 9 2 1 -14 -16 -29 -35 -27 -27 3 8 33 -2 56 -25 56
-12 0 -21 -9 -25 -25 -6 -25 -15 -31 -28 -18 -7 8 -16 10 -62 19 -25 5 -36 1
-53 -17 -11 -12 -21 -33 -21 -46 0 -14 -4 -21 -10 -18 -5 3 -10 2 -10 -4 0 -5
6 -12 13 -14 7 -3 5 -6 -5 -6 -23 -1 -23 31 -1 67 17 26 17 26 0 13 -15 -12
-17 -11 -17 8 0 22 -42 47 -48 30 -2 -5 -9 -9 -15 -9 -7 0 -22 -21 -34 -48
-13 -26 -23 -41 -23 -34 0 7 -5 10 -10 7 -8 -5 -7 -11 1 -21 6 -8 7 -14 2 -14
-5 0 -9 -16 -9 -37 2 -46 30 -68 51 -39 8 10 12 23 9 27 -3 5 4 9 15 9 14 0
19 -5 16 -19 -7 -35 49 -37 58 -3 3 12 5 10 6 -6 0 -12 8 -25 16 -28 24 -9 43
13 37 42 -5 26 -5 26 21 10 14 -10 28 -24 31 -32 7 -19 33 -18 45 4 6 9 11 13
11 9 0 -9 30 18 30 28 0 3 -8 1 -18 -4 -15 -8 -24 -4 -43 18 -24 28 -25 29 -7
51 12 14 18 17 18 8 0 -8 -6 -20 -12 -28 -7 -8 -3 -6 9 4 20 17 22 46 2 46 -5
0 -9 8 -9 18 1 16 1 16 14 0 7 -10 15 -16 18 -13 2 3 4 -5 3 -18 -1 -14 8 -30
26 -43 l28 -20 -35 0 c-22 1 -33 5 -30 13 3 7 -1 10 -10 6 -22 -8 2 -32 26
-26 23 6 40 -25 20 -37 -6 -4 13 -7 44 -7 31 0 51 4 45 8 -8 4 -7 13 4 30 8
13 18 40 21 60 4 21 13 42 21 49 19 16 19 1 1 -25 -14 -21 -19 -75 -6 -75 4 0
6 -11 5 -25 -4 -33 16 -48 49 -35 14 5 26 15 26 22 0 9 -3 8 -10 -2 -8 -13
-10 -12 -10 3 0 9 7 17 15 17 8 0 15 -9 15 -20 0 -25 25 -37 44 -21 7 6 15 9
17 7 2 -3 4 13 3 35 0 21 -4 42 -7 46 -4 3 -7 16 -6 27 0 20 1 20 9 -1 5 -13
14 -23 20 -23 6 0 3 12 -8 28 -11 15 -21 36 -23 46 -13 63 -83 31 -110 -49
-12 -34 -18 -43 -21 -29 -2 10 4 34 14 52 10 18 13 32 7 32 -6 0 -9 12 -7 28
3 24 7 27 46 30 23 2 42 -1 42 -6 0 -5 11 -17 25 -26 21 -14 24 -14 19 -1 -4
8 -11 15 -16 15 -6 0 -8 7 -5 15 4 8 2 17 -3 20 -6 4 -10 2 -10 -3 0 -5 -20
-6 -45 -2 -32 5 -48 3 -56 -6z"/>
<path d="M2070 873 c0 -6 5 -13 10 -15 6 -2 0 -14 -12 -28 -23 -25 -38 -67
-19 -56 5 4 13 1 16 -5 4 -5 13 -8 21 -5 12 4 12 2 4 -14 -6 -11 -13 -20 -16
-20 -3 0 -2 5 1 10 3 6 1 10 -4 10 -6 0 -12 -4 -12 -10 -2 -11 -2 -11 -13 -53
-10 -32 8 -60 33 -53 16 5 111 10 144 7 9 0 17 -7 17 -15 0 -9 9 -12 28 -9 23
3 24 2 7 -6 -19 -9 -19 -10 3 -10 12 -1 22 4 22 9 0 6 9 24 21 39 20 27 20 30
4 60 -13 26 -14 36 -4 47 10 12 13 12 25 -3 16 -22 18 -10 3 19 -6 11 -8 22
-6 24 3 3 11 -8 19 -24 12 -23 12 -33 3 -45 -9 -13 -14 -14 -25 -4 -10 10 -10
8 -2 -9 6 -11 8 -39 5 -62 -4 -28 -2 -42 6 -42 7 0 9 10 6 28 -5 22 -4 24 5
10 7 -12 24 -18 51 -18 35 0 42 4 60 35 12 19 25 35 30 35 5 0 9 4 9 9 0 5 -8
7 -19 4 -11 -3 -21 2 -24 11 -4 9 -1 15 5 13 6 -1 13 4 16 12 3 8 0 11 -7 7
-7 -4 -9 -1 -5 8 3 8 14 18 25 21 10 4 19 11 19 17 0 6 8 20 18 31 13 16 14
19 2 15 -8 -2 -20 -15 -27 -28 l-12 -24 -6 26 c-16 65 -133 65 -135 1 0 -23
-18 -14 -24 12 -4 14 -11 25 -17 25 -6 0 -8 4 -5 8 3 5 -14 7 -37 5 -63 -6
-82 -43 -56 -110 8 -23 7 -30 -8 -43 -10 -9 -17 -26 -16 -40 3 -25 3 -25 -7
-2 -6 15 -18 22 -36 22 l-26 0 26 46 c14 26 26 55 26 65 0 22 -36 49 -65 49
-12 0 -26 5 -33 12 -8 8 -12 9 -12 1z"/>
<path d="M2655 860 c-11 -4 -32 -6 -46 -3 -21 4 -33 -4 -67 -45 -23 -27 -42
-57 -42 -65 0 -8 -6 -18 -12 -20 -7 -3 1 -4 19 -2 18 2 38 7 44 11 8 5 9 -7 4
-43 -5 -42 -4 -51 10 -57 24 -9 35 1 35 33 0 46 22 141 31 135 5 -3 8 5 6 17
-1 12 4 24 11 26 10 4 12 -4 6 -33 -14 -74 -13 -79 31 -84 39 -5 40 -6 40 -45
0 -34 3 -40 23 -43 20 -3 22 1 22 37 0 23 5 41 10 41 11 0 14 33 3 44 -4 4 -7
19 -8 34 0 20 -6 28 -22 30 -20 3 -23 -1 -23 -27 0 -21 -5 -31 -15 -31 -18 0
-19 18 -5 56 15 39 -9 53 -55 34z"/>
<path d="M2843 853 c-9 -3 -13 -26 -13 -65 l0 -60 34 6 c26 5 35 3 40 -10 10
-25 -9 -38 -50 -36 -32 2 -35 0 -32 -20 2 -19 10 -24 41 -26 46 -4 82 17 91
52 9 37 -8 71 -43 86 -39 16 -39 27 -1 35 21 5 30 13 30 26 0 16 -7 19 -42 18
-24 0 -49 -3 -55 -6z"/>
<path d="M8275 598 c-4 -18 -5 -58 -3 -88 3 -54 3 -55 33 -53 60 5 105 62 91
116 -7 29 -51 57 -90 57 -20 0 -26 -6 -31 -32z"/>
<path d="M9182 614 c-41 -28 -84 -153 -62 -179 16 -20 40 -7 40 21 0 17 6 24
20 24 15 0 20 -7 20 -25 0 -18 5 -25 20 -25 18 0 20 7 20 88 0 108 -12 128
-58 96z"/>
<path d="M9281 616 c-6 -7 -12 -31 -13 -51 -1 -29 4 -43 21 -56 13 -11 28 -16
35 -12 6 3 3 -3 -8 -15 -20 -23 -16 -52 7 -52 39 0 77 79 77 157 0 51 -25 60
-40 16 -23 -66 -45 -74 -45 -16 0 39 -15 52 -34 29z"/>
<path d="M9477 601 c-33 -39 -66 -159 -47 -171 21 -13 40 0 40 26 0 17 6 24
20 24 15 0 20 -7 20 -25 0 -18 5 -25 20 -25 18 0 20 7 20 88 0 116 -23 142
-73 83z"/>
<path d="M83 613 l-83 -4 0 -189 c0 -117 4 -191 10 -195 6 -4 8 -11 5 -16 -11
-17 8 -9 25 11 11 13 21 17 25 10 4 -7 13 -7 27 1 18 10 20 9 15 -5 -4 -9 -1
-16 6 -16 7 0 22 -3 35 -6 12 -4 22 -2 22 4 0 6 -12 13 -27 15 -24 3 -23 4 7
5 21 1 45 -6 59 -17 21 -16 26 -17 39 -4 8 7 11 17 8 21 -4 3 -11 0 -16 -7 -7
-12 -11 -11 -25 2 -9 10 -25 17 -36 17 -16 0 -19 7 -19 40 0 40 0 40 39 40 36
0 58 17 53 41 -14 74 -19 86 -43 92 -13 3 -19 14 -19 32 0 14 -5 35 -10 46
-12 22 -6 23 41 8 44 -15 43 -14 27 -38 -11 -18 -11 -23 2 -32 11 -8 12 -12 3
-16 -7 -2 -13 -9 -13 -15 0 -6 6 -6 15 2 8 7 24 10 35 7 11 -3 23 -1 26 4 3 5
-4 9 -15 9 -25 0 -36 17 -22 33 16 20 6 52 -17 55 -12 2 -22 8 -22 14 0 6 -34
9 -87 8 -49 -2 -99 2 -113 9 -21 9 -13 10 45 7 50 -3 59 -2 30 4 l-40 7 40 2
c22 2 51 7 65 11 18 6 20 8 5 7 -11 -1 -57 -3 -102 -4z"/>
<path d="M8455 600 c-17 -19 -40 -151 -31 -175 3 -8 13 -11 25 -8 14 4 21 15
23 41 l3 36 31 -33 c21 -22 37 -32 48 -28 22 9 20 21 -8 54 -21 25 -22 31 -10
48 8 10 14 26 14 36 0 39 -67 60 -95 29z"/>
<path d="M8936 585 c-16 -24 -38 -143 -29 -157 2 -5 13 -8 24 -8 15 0 19 7 20
33 0 17 6 50 14 72 l13 40 1 -32 c1 -26 5 -33 21 -33 13 0 25 12 35 33 15 31
15 31 10 -35 -5 -68 1 -83 29 -72 13 5 16 22 16 84 0 50 -4 81 -12 88 -7 5
-38 10 -70 11 -49 0 -58 -3 -72 -24z"/>
<path d="M2150 541 c0 -9 -8 -12 -25 -9 -14 3 -28 1 -31 -3 -3 -5 4 -9 15 -9
12 0 21 -5 21 -10 0 -6 -10 -8 -23 -5 -16 4 -24 2 -24 -7 -1 -7 -4 -40 -9 -72
l-7 -59 37 7 c29 6 38 4 43 -10 8 -22 -20 -43 -52 -36 -17 3 -27 -1 -31 -13
-9 -22 12 -35 59 -35 92 0 109 117 20 144 -32 10 -29 23 7 31 16 4 32 10 35
15 10 15 -7 40 -27 40 -17 0 -18 3 -8 15 15 18 37 20 42 3 3 -8 9 -5 16 8 10
19 8 21 -24 20 -22 -1 -34 -6 -34 -15z"/>
<path d="M1930 500 c12 -10 11 -11 -7 -7 -13 3 -24 -1 -27 -9 -7 -17 5 -88 13
-77 3 4 21 16 39 26 31 18 32 18 32 -2 0 -12 -3 -21 -8 -21 -4 0 -13 -9 -20
-21 -10 -16 -10 -24 -1 -35 6 -7 15 -11 20 -8 5 3 9 1 9 -5 0 -6 -11 -13 -25
-17 -37 -9 -34 -44 4 -44 55 0 103 64 71 96 -6 6 -6 20 2 41 17 46 0 80 -41
81 -17 0 -41 4 -54 7 -18 5 -19 4 -7 -5z"/>
<path d="M2253 492 c-7 -4 -15 -34 -19 -66 l-7 -59 37 7 c28 5 38 3 42 -9 11
-27 -14 -44 -53 -38 -32 5 -35 4 -31 -18 3 -21 9 -24 47 -27 34 -3 49 2 67 19
44 41 27 105 -33 123 -32 10 -29 22 10 32 46 14 42 38 -8 42 -22 1 -45 -1 -52
-6z"/>
<path d="M597 478 c-10 -5 -23 -6 -30 -2 -6 4 -9 4 -5 -1 4 -4 1 -20 -7 -36
-8 -15 -12 -36 -9 -46 5 -15 4 -15 -5 -3 -19 27 -21 4 -2 -34 29 -56 40 -66
75 -66 34 0 75 33 77 61 0 9 4 6 9 -6 6 -13 7 -1 3 35 -3 30 -10 63 -15 73 -5
10 -5 17 1 17 5 0 12 -5 14 -10 3 -6 4 -5 3 2 -1 7 -17 13 -34 14 -17 1 -37 4
-45 7 -7 3 -21 1 -30 -5z"/>
<path d="M2410 471 c-26 -49 4 -84 37 -43 23 27 4 -7 -35 -65 -47 -70 -40 -84
40 -81 55 3 63 5 63 23 0 14 -8 21 -27 23 -16 2 -28 5 -28 8 0 2 11 22 25 44
42 67 30 110 -32 110 -22 0 -36 -6 -43 -19z"/>
<path d="M2570 471 c-26 -49 4 -84 37 -43 23 27 4 -7 -35 -65 -47 -70 -40 -85
35 -79 32 3 61 5 66 5 4 1 7 10 7 21 0 18 -20 26 -52 21 -14 -2 -8 15 17 49
30 41 33 85 6 100 -31 16 -69 12 -81 -9z"/>
<path d="M2865 466 c-19 -28 -14 -56 9 -56 8 0 19 8 25 17 5 10 12 16 15 13 2
-3 -13 -32 -35 -64 -54 -80 -50 -91 31 -91 58 0 65 2 65 20 0 15 -8 21 -32 23
l-31 3 31 50 c25 42 29 54 21 77 -8 22 -16 28 -46 30 -30 3 -40 -1 -53 -22z"/>
<path d="M717 459 c-9 -33 -8 -46 2 -31 6 10 10 7 13 -12 4 -18 1 -26 -8 -26
-8 0 -14 -5 -14 -11 0 -5 4 -7 10 -4 6 4 7 -6 4 -25 -5 -22 -2 -36 11 -50 22
-24 43 -25 73 -4 20 14 22 14 22 0 0 -9 -9 -16 -20 -16 -28 0 -25 -15 4 -18
20 -1 24 4 30 39 4 22 4 45 0 50 -3 6 -3 26 1 46 l6 36 14 -26 c11 -22 11 -34
-1 -74 -8 -26 -12 -53 -10 -60 9 -21 46 -15 56 10 8 21 9 21 9 -5 1 -16 5 -28
9 -28 4 0 7 15 6 33 -1 17 1 22 3 9 5 -27 44 -44 81 -36 21 4 24 3 12 -5 -13
-9 -12 -11 3 -11 14 0 17 5 12 19 -5 16 -2 18 14 14 11 -3 36 5 56 17 39 24
56 22 30 -4 -14 -14 -15 -16 -1 -16 19 0 40 36 26 45 -5 3 -10 12 -10 18 0 8
3 7 9 -2 13 -20 41 -5 40 21 l-2 23 -4 -22 c-2 -13 -9 -23 -15 -23 -9 0 -3 48
7 58 8 9 25 -11 25 -29 0 -11 10 -24 23 -30 20 -9 20 -9 -5 -4 -31 6 -36 -6
-13 -25 9 -7 13 -15 10 -18 -3 -3 -14 3 -25 13 -19 18 -20 17 -20 -2 0 -11 -7
-26 -16 -34 -14 -11 -13 -14 8 -25 l23 -13 -28 -1 c-16 0 -26 -4 -22 -10 3 -5
-3 -10 -15 -10 -33 0 -21 -34 13 -37 15 -1 27 2 27 6 0 14 36 19 56 8 17 -10
17 -11 -1 -18 -14 -5 -9 -7 16 -6 21 1 35 6 32 10 -3 4 0 14 7 22 7 9 8 15 0
20 -10 6 -11 5 -14 -14 0 -5 -3 -11 -6 -13 -3 -1 -4 -1 -2 1 1 3 -10 11 -25
17 l-28 13 28 -5 c20 -5 27 -2 27 9 0 10 -7 13 -19 10 -26 -7 -36 14 -11 22
11 3 24 4 29 1 5 -3 14 1 21 9 8 9 22 13 39 10 25 -5 25 -5 4 6 -13 7 -23 19
-23 27 0 12 4 12 24 -2 14 -9 27 -12 31 -6 8 13 -32 32 -55 25 -25 -8 -34 10
-35 70 0 43 -3 50 -20 50 -13 0 -21 -8 -23 -22 -2 -13 2 -23 8 -23 6 0 8 -5 5
-10 -4 -6 -12 -5 -21 4 -17 18 -3 66 21 66 8 0 15 8 15 18 0 14 -2 15 -10 2
-9 -13 -11 -13 -20 0 -8 13 -10 12 -10 -3 0 -11 -5 -15 -11 -11 -7 4 -9 0 -5
-13 6 -17 -20 -64 -45 -83 -4 -3 -9 -14 -12 -25 -4 -16 -5 -14 -6 7 0 15 -6
30 -11 33 -6 4 -7 11 -4 17 4 7 2 8 -4 4 -9 -5 -11 6 -8 37 l3 43 -46 0 c-44
1 -81 -19 -66 -34 3 -4 13 2 21 12 7 11 17 17 21 13 3 -4 -1 -15 -9 -24 -20
-23 -30 -53 -18 -53 12 0 60 -45 60 -56 0 -5 -4 -3 -8 4 -13 19 -62 -2 -62
-27 0 -11 6 -21 13 -24 16 -6 8 -13 -23 -22 -20 -6 -23 -5 -12 6 6 7 12 28 12
46 0 31 10 40 43 34 5 -1 6 3 2 9 -3 6 -11 8 -16 5 -5 -4 -9 0 -9 7 0 10 -2
10 -9 0 -6 -10 -10 -2 -15 25 -12 63 -16 73 -38 73 -11 0 -36 -17 -54 -37 -26
-28 -34 -33 -34 -19 0 10 -11 29 -24 41 -24 23 -25 23 -45 3 -15 -13 -21 -32
-22 -66 -1 -38 -2 -42 -9 -22 -4 14 -8 19 -9 13 -2 -31 -16 -9 -19 29 -4 55
-17 79 -25 47z"/>
<path d="M6745 433 c-10 -9 -25 -18 -34 -20 -8 -1 -21 -10 -28 -20 -11 -14
-17 -15 -33 -5 -18 11 -19 10 -10 -14 17 -44 12 -58 -25 -70 -28 -9 -35 -8
-35 2 0 9 11 14 30 14 30 0 37 11 24 44 -10 26 -27 18 -20 -10 5 -17 3 -24 -6
-23 -20 3 -48 -12 -48 -26 0 -6 -9 -20 -20 -30 -11 -10 -25 -33 -32 -51 -7
-19 -16 -34 -20 -34 -4 0 -8 -5 -8 -11 0 -6 -13 -41 -30 -79 -40 -91 -39 -100
8 -100 38 0 39 1 58 58 10 31 27 68 37 81 12 17 16 35 12 55 -3 22 -2 25 3 12
11 -24 25 -5 15 19 -4 13 -2 16 8 13 13 -4 186 199 176 208 -2 3 -13 -3 -22
-13z"/>
</g>
</svg>
